<?xml version="1.0" encoding="utf-8"?>
<!-- Generator: Adobe Illustrator 23.0.1, SVG Export Plug-In . SVG Version: 6.00 Build 0)  -->
<svg version="1.1" id="Layer_1" xmlns="http://www.w3.org/2000/svg" xmlns:xlink="http://www.w3.org/1999/xlink" x="0px" y="0px"
	 viewBox="0 0 606.2 526.4" style="enable-background:new 0 0 606.2 526.4;" xml:space="preserve">
<style type="text/css">
	.st0{fill:#DFF1F4;}
	.st1{fill:#FDECC0;}
	.st2{fill:#E3E5E4;}
	.st3{fill:#2B5873;}
	.st4{fill:#22485F;}
	.st5{fill:#FFFFFF;}
	.st6{fill:#D97A45;}
	.st7{fill:#FBC552;}
	.st8{fill:#C9CDCC;}
	.st9{clip-path:url(#SVGID_2_);}
	.st10{fill:#F49E48;}
	.st11{fill:#A1D6E1;}
	.st12{fill:#3A809B;}
	.st13{fill:#456293;}
	.st14{clip-path:url(#SVGID_4_);}
	.st15{fill:#3F5986;}
	.st16{clip-path:url(#SVGID_6_);}
	.st17{fill:#FAC0AA;}
	.st18{fill:#FCD041;}
	.st19{fill:#7285CB;}
	.st20{clip-path:url(#SVGID_8_);}
	.st21{fill:#677BBD;}
	.st22{clip-path:url(#SVGID_10_);}
	.st23{fill:#F4AF3C;}
	.st24{fill:#DC6B59;}
	.st25{clip-path:url(#SVGID_12_);}
	.st26{fill:#EAA396;}
	.st27{fill:#C74647;}
	.st28{fill:#D36373;}
	.st29{fill:#1F3952;}
	.st30{fill:#D35B52;}
	.st31{fill:#E08988;}
	.st32{fill:#274C67;}
	.st33{fill:#FCE892;}
	.st34{clip-path:url(#SVGID_14_);}
	.st35{fill:#F79942;}
	.st36{fill:#24325E;}
	.st37{clip-path:url(#SVGID_16_);}
	.st38{fill:#F89F97;}
	.st39{fill:#F78D81;}
	.st40{fill:#132B38;}
	.st41{fill:#E34B53;}
</style>
<g id="g10" transform="translate(-34.849 609.332)">
	<g id="g12">
		<path id="path16" class="st0" d="M225.7-194.4c-13.3,0-26.4-1.8-39.2-5.2c1.1-18.5,2.2-37.2,2.8-52.7l0,0c0.1-2,0.2-4,0.2-5.9l0,0
			c0,0,0.3-12.5,0.6-28.8l0,0c0.1-4.5,0.2-9.4,0.2-14.3l35.2-10.1l-8.9-31.1l-26,7.5c0-14.3-0.4-25.3-1.2-26.8
			c-1.5-2.7-4.5-4.8-8.2-6.4l2.4-2.6c-2.4-0.9-5-1.5-7.6-1.8v-3.2l0,0v-10l-28.3-9.4c5-17.5,35.9-33.7,42.5-36.6
			c7.5-3.3,3-20.5,0.3-26.1c-1-2-2.6-2.6-4.7-2.6c-1.6,0.1-3.2,0.2-4.8,0.5c-2.1,0.3-4.1,0.4-6.2,0.5c-1.9,0-3.9-0.2-5.8-0.5
			c-2.1-0.4-4.2-0.6-6.3-0.6c-7.2,0-10.5,2.7-10.5,2.7c-0.9-2.1-1.8-4.2-2.9-6.2c-3.2,3-0.7,7.1-0.7,7.1c-0.6-0.3-1.2-0.4-1.9-0.4
			c-1.7,0-4.1,1.2-5,7.2c-9.2,0.1-17.2,9.5-17,16.2s4.6,38.5,10.7,44.1c2,1.9,6.7,2.2,9.5,2.2c0.9,0,1.6,0,1.9,0l2,15.6
			c-3,0.6-5.9,1.4-8.7,2.4l0.7,0.6c-1.8,0.6-3.5,1.5-4.9,2.7c-3.7,3.6-10.4,22-16.5,52.1l-43.7,12.5c-4.1-13.8-5.5-28.2-3.1-42.3
			c8.1-48,56.7-81.4,65-129.3c5.1-29.6-5.9-61.6,6-89.2c11.1-26,40.8-40.5,69-40.5h0.2c28.3,0.1,55.2,12.3,79.2,27.3
			c22.5,14.1,43.3,30.9,66.1,44.4v4H253.6v330.7c-2.2,0.4-4.4,0.8-6.6,1.2C240-194.9,232.8-194.4,225.7-194.4 M157.6-210.4
			c-6.9-3.3-13.6-7.2-20-11.4l4.2-15h14.4C156.5-236.4,157-225.5,157.6-210.4 M108.1-246.9c-5.4-5.8-10.3-12.1-14.8-18.7
			c-1.5-2.2-2.9-4.5-4.3-6.8l24.5-7c-0.3,1.9-0.5,3.7-0.8,5.7l0,0C112.8-273.7,110.9-263.1,108.1-246.9"/>
		<path id="path18" class="st1" d="M572.5-139.9v-267.3c3.8-5.3,8.2-9.8,14.1-12.6c3.6-1.7,7.5-2.5,11.5-2.5
			c11.3,0,22.9,6.5,29.4,16.2c8.7,13,9.4,30,5.8,45.2s-11,29.2-17.7,43.4s-12.9,28.9-13.7,44.5c-1.4,25.8,11.9,51.1,8.3,76.6
			c-2.1,14.4-9.4,27.5-18.6,38.7C586-150.8,579.6-144.9,572.5-139.9"/>
		<path id="path20" class="st2" d="M333.1-83C170.3-83,38.4-90.4,38.4-99.6c0-3.3,16.7-6.3,45.4-8.9c-4.9,1.3-13,3.8-13.7,6.4
			c-0.4,1.6,5.7,2.1,12.9,2.1c9.9,0,21.7-0.9,21.7-0.9l1.7-9.4c16.2-1.1,34.8-2.1,55.4-2.9l0.4,12.3c0,0,11.9,0.9,21.7,0.9
			c7.2,0,13.3-0.5,12.9-2.1c-1-3.8-17.5-7.4-17.5-7.4l0.1-4.4c22.8-0.8,47.7-1.4,74.1-1.8v13.2h318.9v-6.9
			c34.8,2.7,55.3,6.1,55.3,9.7C627.8-90.4,495.9-83,333.1-83"/>
		<path id="path22" class="st3" d="M253.6-102.4h318.9v-425.4H253.6V-102.4z"/>
		<path id="path24" class="st4" d="M552.9-118.1H273.1v-6.5h279.9V-118.1"/>
		<path id="path26" class="st5" d="M273.1-124.6h279.9v-381.1H273.1V-124.6z"/>
		<path id="path28" class="st6" d="M252.2-501.4v-27.9h27.9L252.2-501.4z"/>
		<path id="path30" class="st6" d="M573.9-501.4v-27.9H546L573.9-501.4z"/>
		<path id="path32" class="st6" d="M252.2-127.8v27.9h27.9L252.2-127.8z"/>
		<path id="path34" class="st6" d="M573.9-127.8v27.9H546L573.9-127.8z"/>
		<path id="path36" class="st7" d="M413-517.4L413-517.4c-11,0-19.9,5.1-19.9-5.9v-1.7c0-11,8.9-19.9,19.9-19.9c0,0,0,0,0,0
			c11,0,19.9,8.9,19.9,19.9c0,0,0,0,0,0v1.7C432.9-512.3,424-517.4,413-517.4"/>
		<path id="path38" class="st8" d="M361-492h104.1v-3.9H361V-492z"/>
		<path id="path40" class="st7" d="M358.2-495.9h109.7v-36.9H358.2V-495.9z"/>
		<g id="g42">
			<g>
				<defs>
					<rect id="SVGID_1_" x="358.2" y="-532.8" width="109.7" height="36.9"/>
				</defs>
				<clipPath id="SVGID_2_">
					<use xlink:href="#SVGID_1_"  style="overflow:visible;"/>
				</clipPath>
				<g id="g44" class="st9">
					<path id="path50" class="st10" d="M467.9-495.9H358.2v-16.6h109.7V-495.9"/>
				</g>
			</g>
		</g>
		<path id="path52" class="st11" d="M339.4-396.8h-38.3v-38.3h38.3L339.4-396.8"/>
		<path id="path54" class="st11" d="M298.4-394.1H342v-43.6h-43.6V-394.1z M343.4-392.7H297v-46.4h46.4V-392.7"/>
		<path id="path56" class="st11" d="M339.4-338.1h-38.3v-38.3h38.3L339.4-338.1"/>
		<path id="path58" class="st11" d="M298.4-335.5H342v-43.6h-43.6V-335.5z M343.4-334.1H297v-46.4h46.4V-334.1"/>
		<path id="path60" class="st11" d="M339.4-279.5h-38.3v-38.3h38.3L339.4-279.5"/>
		<path id="path62" class="st11" d="M298.4-276.8H342v-43.6h-43.6V-276.8z M343.4-275.4H297v-46.4h46.4V-275.4"/>
		<path id="path64" class="st12" d="M316.8-402.5l-22.1-21.9c-1.5-1.5-1.5-4,0-5.5c1.5-1.5,4-1.5,5.5,0l16.3,16.1l25.9-28.6
			c1.4-1.6,3.9-1.7,5.5-0.3c0,0,0,0,0,0c1.6,1.4,1.7,3.9,0.3,5.5c0,0,0,0,0,0L316.8-402.5"/>
		<path id="path66" class="st12" d="M316.8-343.4l-22.1-21.9c-1.5-1.5-1.5-4,0-5.5c1.5-1.5,4-1.5,5.5,0l16.3,16.1l25.9-28.6
			c1.4-1.6,3.9-1.7,5.5-0.3c0,0,0,0,0,0c1.6,1.4,1.7,3.9,0.3,5.5c0,0,0,0,0,0L316.8-343.4"/>
		<path id="path68" class="st12" d="M316.8-285.7l-22.1-21.9c-1.5-1.5-1.5-4,0-5.5c1.5-1.5,4-1.5,5.5,0l16.3,16.1l25.9-28.6
			c1.4-1.6,3.9-1.7,5.5-0.3c0,0,0,0,0,0c1.6,1.4,1.7,3.9,0.3,5.5L316.8-285.7"/>
		<path id="path70" class="st11" d="M339.4-220.8h-38.3v-38.3h38.3L339.4-220.8"/>
		<path id="path68_2_" class="st12" d="M316.8-223.3l-22.1-21.9c-1.5-1.5-1.5-4,0-5.5c1.5-1.5,4-1.5,5.5,0l16.3,16.1l25.9-28.6
			c1.4-1.6,3.9-1.7,5.5-0.3c0,0,0,0,0,0c1.6,1.4,1.7,3.9,0.3,5.5L316.8-223.3"/>
		<path id="path72" class="st11" d="M298.4-218.2H342v-43.6h-43.6V-218.2z M343.4-216.8H297v-46.4h46.4V-216.8"/>
		<path id="path74" class="st11" d="M339.4-162.1h-38.3v-38.3h38.3L339.4-162.1"/>
		<path id="path68_1_" class="st12" d="M316.8-166l-22.1-21.9c-1.5-1.5-1.5-4,0-5.5c1.5-1.5,4-1.5,5.5,0l16.3,16.1l25.9-28.6
			c1.4-1.6,3.9-1.7,5.5-0.3c0,0,0,0,0,0c1.6,1.4,1.7,3.9,0.3,5.5L316.8-166"/>
		<path id="path76" class="st11" d="M298.4-159.5H342v-43.6h-43.6V-159.5z M343.4-158.1H297v-46.4h46.4V-158.1"/>
		<path id="path78" class="st12" d="M526.7-424.7H357.3v-4.6h169.4V-424.7"/>
		<path id="path80" class="st12" d="M526.7-413.6H357.3v-4.6h169.4V-413.6"/>
		<path id="path82" class="st12" d="M409.7-402.5h-52.4v-4.6h52.4V-402.5"/>
		<path id="path84" class="st12" d="M526.7-366.8H357.3v-4.6h169.4V-366.8"/>
		<path id="path86" class="st12" d="M526.7-355.7H357.3v-4.6h169.4V-355.7"/>
		<path id="path88" class="st12" d="M468-344.6H357.3v-4.6H468V-344.6"/>
		<path id="path90" class="st12" d="M526.7-308.9H357.3v-4.6h169.4V-308.9"/>
		<path id="path92" class="st12" d="M502.2-297.8H357.3v-4.6h144.9V-297.8"/>
		<path id="path94" class="st12" d="M409.7-286.7h-52.4v-4.6h52.4V-286.7"/>
		<path id="path96" class="st12" d="M526.7-251H357.3v-4.6h169.4V-251"/>
		<path id="path98" class="st12" d="M442.7-239.9h-85.4v-4.6h85.4V-239.9"/>
		<path id="path100" class="st12" d="M526.7-193H357.3v-4.6h169.4V-193"/>
		<path id="path102" class="st12" d="M526.7-181.9H357.3v-4.6h169.4V-181.9"/>
		<path id="path104" class="st12" d="M480.8-170.8H357.3v-4.6h123.5V-170.8"/>
		<path id="path106" class="st12" d="M493.8-465.1H332.7v-11.4h161.1V-465.1"/>
		<path id="path108" class="st5" d="M417.6-536c0,2.5-2.1,4.6-4.6,4.6c-2.5,0-4.6-2.1-4.6-4.6c0-2.5,2.1-4.6,4.6-4.6
			C415.6-540.6,417.6-538.5,417.6-536"/>
		<path id="path110" class="st13" d="M90.2-122.4l-2.6,12.9c0,0-16.5,3.6-17.5,7.4s34.6,1.2,34.6,1.2l3.8-21.5H90.2"/>
		<g id="g112">
			<g>
				<defs>
					<path id="SVGID_3_" d="M90.2-122.4l-2.6,12.9c0,0-16.5,3.6-17.5,7.4s34.6,1.2,34.6,1.2l3.8-21.5H90.2"/>
				</defs>
				<clipPath id="SVGID_4_">
					<use xlink:href="#SVGID_3_"  style="overflow:visible;"/>
				</clipPath>
				<g id="g114" class="st14">
					<path id="path120" class="st15" d="M103.3-114.3c-0.2,0-0.4,0-0.6,0c-3.1-0.1-6.3-0.6-9.3-1.5c-1.4-0.4-2.8-1-4.1-1.7l0.4-2.1
						c6.8,0.7,11.3,0.9,14.2,0.9c1.3,0,2.7,0,4-0.2l-0.8,4.4C105.9-114.4,104.6-114.3,103.3-114.3"/>
				</g>
			</g>
		</g>
		<path id="path122" class="st13" d="M179.8-122.4l-0.4,12.9c0,0,16.5,3.6,17.5,7.4s-34.6,1.2-34.6,1.2l-0.8-21.5H179.8"/>
		<g id="g124">
			<g>
				<defs>
					<path id="SVGID_5_" d="M179.8-122.4l-0.4,12.9c0,0,16.5,3.6,17.5,7.4s-34.6,1.2-34.6,1.2l-0.8-21.5H179.8"/>
				</defs>
				<clipPath id="SVGID_6_">
					<use xlink:href="#SVGID_5_"  style="overflow:visible;"/>
				</clipPath>
				<g id="g126" class="st16">
					<path id="path132" class="st15" d="M166.1-113.1c-1.4,0-2.9-0.1-4.3-0.3l-0.2-5.6c3.1,0.4,6.3,0.6,9.5,0.6
						c2.9,0.1,5.8-0.3,8.6-1l0,1.2c-3.6,3-8,4.7-12.6,5C166.7-113.2,166.4-113.1,166.1-113.1"/>
				</g>
			</g>
		</g>
		<path id="path134" class="st17" d="M253-422.1c0,0-12.2-3.8-12-7.4s8.5-0.7,8.5-0.7s-4.6-16.9-2.6-18.3s5,9.2,5,9.2
			s0.6-10.3,3.2-10.1s2.2,8.5,2.2,8.5s3-6.6,5.6-5.5s-1.7,8.2-1.7,8.2s6.6-3.7,7.6-1.9s-4.1,7.8-4.1,7.8s6.4,6-1.3,17.6
			c-2.1-0.9-8.1-3.7-11.3-3L253-422.1"/>
		<path id="path136" class="st18" d="M173.6-370.7c0,0,55.4,4.9,76.6-48.8c15.1-2.3,15.1,8.4,15.1,8.4s-20.9,78.7-85.9,68.4"/>
		<path id="path138" class="st19" d="M112.8-273.7c0,0-17,96.2-25.2,153.8c17.7,1.9,21.4,0.8,21.4,0.8l32.8-117.6h14.4
			c1.1,1.1,4.3,117.6,4.3,117.6s14.8,2.2,20.6-0.8c0,0,6.7-89.7,8.5-138.3L112.8-273.7"/>
		<g id="g140">
			<g>
				<defs>
					<path id="SVGID_7_" d="M112.8-273.7c0,0-17,96.2-25.2,153.8c17.7,1.9,21.4,0.8,21.4,0.8l32.8-117.6h14.4
						c1.1,1.1,4.3,117.6,4.3,117.6s14.8,2.2,20.6-0.8c0,0,6.7-89.7,8.5-138.3L112.8-273.7"/>
				</defs>
				<clipPath id="SVGID_8_">
					<use xlink:href="#SVGID_7_"  style="overflow:visible;"/>
				</clipPath>
				<g id="g142" class="st20">
					<path id="path148" class="st21" d="M154.4-247.2c-15.3,0-30.4-2.9-44.7-8.3c1.9-11.3,3.2-18.2,3.2-18.2l0,0
						c14.3,15,34.1,18.7,50.1,18.7c9,0,17.9-1.1,26.6-3.3c-0.1,1.9-0.1,3.9-0.2,5.9c-8.3,2.5-16.9,4.1-25.5,4.8
						C160.7-247.3,157.5-247.2,154.4-247.2"/>
				</g>
			</g>
		</g>
		<path id="path150" class="st18" d="M159.7-372.9c0,0-18.6,1.1-23.8,6.1s-16.2,38.9-23.2,93.1c27.7,29.3,76.7,15.4,76.7,15.4
			s2.5-98.7-0.1-103.7C184.4-371.4,159.7-372.9,159.7-372.9"/>
		<g id="g152">
			<g>
				<defs>
					<path id="SVGID_9_" d="M159.7-372.9c0,0-18.6,1.1-23.8,6.1s-16.2,38.9-23.2,93.1c27.7,29.3,76.7,15.4,76.7,15.4
						s2.5-98.7-0.1-103.7C184.4-371.4,159.7-372.9,159.7-372.9"/>
				</defs>
				<clipPath id="SVGID_10_">
					<use xlink:href="#SVGID_9_"  style="overflow:visible;"/>
				</clipPath>
				<g id="g154" class="st22">
					<path id="path160" class="st23" d="M141.5-272.4c-2,0-4.1-0.1-6.2-0.2c-7.5-0.8-14.7-3.2-21.3-6.9l76.2-21.9
						c-0.1,4.9-0.1,9.8-0.2,14.3C178.8-280.1,161.5-272.4,141.5-272.4"/>
				</g>
			</g>
		</g>
		<path id="path162" class="st24" d="M38.7-268.1l-3.5-12.2c-1.5-5.2,1.5-10.7,6.8-12.2l174.7-50.1l8.9,31.1L50.9-261.4
			C45.7-259.9,40.2-262.9,38.7-268.1C38.7-268.1,38.7-268.1,38.7-268.1"/>
		<g id="g164">
			<g>
				<defs>
					<path id="SVGID_11_" d="M38.7-268.1l-3.5-12.2c-1.5-5.2,1.5-10.7,6.8-12.2l174.7-50.1l8.9,31.1L50.9-261.4
						C45.7-259.9,40.2-262.9,38.7-268.1C38.7-268.1,38.7-268.1,38.7-268.1"/>
				</defs>
				<clipPath id="SVGID_12_">
					<use xlink:href="#SVGID_11_"  style="overflow:visible;"/>
				</clipPath>
				<g id="g166" class="st25">
					<path id="path172" class="st26" d="M198.8-313.6l-4.1-14.2l5.8-1.7l4.1,14.2L198.8-313.6"/>
					<path id="path174" class="st26" d="M57.9-273.2l-4.1-14.2l5.4-1.5l4.1,14.2L57.9-273.2"/>
					<path id="path176" class="st3" d="M18.6-233.6L-0.1-299l46.7-13.4L65.4-247L18.6-233.6"/>
					<path id="path178" class="st27" d="M65.8-265.7l-2.6-9l135.6-38.9l2.6,9l-11,3.2l-76.2,21.9l-0.6,0.2l-24.5,7L65.8-265.7"/>
					<path id="path180" class="st27" d="M207.2-306.2l-2.6-9l18.4-5.3l2.6,9L207.2-306.2"/>
					<path id="path182" class="st28" d="M201.4-304.5l-2.6-9l5.8-1.7l2.6,9L201.4-304.5"/>
					<path id="path184" class="st28" d="M60.5-264.1l-2.6-9l5.4-1.5l2.6,9L60.5-264.1"/>
					<path id="path186" class="st29" d="M48.2-261c-4.2,0-8-2.7-9.3-6.7l19-5.5l2.6,9l-9.6,2.7C50-261.1,49.1-261,48.2-261"/>
					<path id="path188" class="st30" d="M59.2-288.9l-2.2-7.8l135.6-38.9l2.2,7.8L59.2-288.9 M200.5-329.5l-2.2-7.8l18.4-5.3
						l2.2,7.8L200.5-329.5"/>
					<path id="path190" class="st31" d="M194.7-327.8l-2.2-7.8l5.8-1.7l2.2,7.8L194.7-327.8"/>
					<path id="path192" class="st31" d="M53.8-287.4l-2.2-7.8l5.4-1.5l2.2,7.8L53.8-287.4"/>
					<path id="path194" class="st32" d="M34.9-282c0-0.3-0.1-0.7-0.1-1c0-4.4,2.9-8.2,7.1-9.5l9.6-2.7l2.2,7.8L34.9-282"/>
				</g>
			</g>
		</g>
		<path id="path196" class="st33" d="M216.6-342.5l30,8.2l-21.1,22.9L216.6-342.5z"/>
		<g id="g198">
			<g>
				<defs>
					<polyline id="SVGID_13_" points="216.6,-342.5 246.7,-334.3 225.5,-311.5 216.6,-342.5 					"/>
				</defs>
				<clipPath id="SVGID_14_">
					<use xlink:href="#SVGID_13_"  style="overflow:visible;"/>
				</clipPath>
				<g id="g200" class="st34">
					<path id="path206" class="st12" d="M260.5-317.6c-10.3,3-21.1-3-24.1-13.4c-3-10.3,3-21.1,13.4-24.1c10.3-3,21.1,3,24.1,13.4
						C276.8-331.3,270.8-320.6,260.5-317.6C260.5-317.6,260.5-317.6,260.5-317.6"/>
				</g>
			</g>
		</g>
		<path id="path208" class="st17" d="M132.3-294.3c0,0,9.2-0.5,13.3,1.3s6.1,2.8,6.1,2.8l8.2-2.4c0,0-2,10.8-11.8,11.6
			c-6.2,0.4-12.3-0.3-18.2-2L132.3-294.3"/>
		<path id="path210" class="st18" d="M149.1-371.4c0,0-58.1,3.6-63,54.9c-3.4,35.3,45.8,37.1,45.8,37.1l2.3-15.6
			c0,0-20.7-8.6-20.7-21.2s22.4-22,22.4-22L149.1-371.4"/>
		<path id="path212" class="st35" d="M160.4-373.7c-6.9,0.2-13.7,1.4-20.2,3.6l24,20.4l19.3-21.2
			C183.6-370.9,176.9-373.7,160.4-373.7"/>
		<path id="path214" class="st36" d="M147.2-388.1c0,0-8.7,0.7-11.7-2.1c-6.1-5.5-10.4-37.4-10.7-44.1s7.7-16.1,17-16.2
			c1.3-9.8,6.8-6.8,6.8-6.8s-2.6-4.1,0.7-7.1c1.1,2,2,4.1,2.9,6.2c0,0,5.1-4.2,16.8-2.1c4,0.7,8,0.7,12,0.1c4.7-0.6,7.9-1.2,9.5,2.1
			c2.7,5.6,7.3,22.8-0.3,26.1S143.8-408.1,147.2-388.1"/>
		<path id="path216" class="st17" d="M145.9-395.9l3.7,28l14.4,12.3l12-12.3v-18.1L145.9-395.9"/>
		<g id="g218">
			<g>
				<defs>
					<polyline id="SVGID_15_" points="145.9,-395.9 149.6,-367.8 164,-355.6 176,-367.8 176,-385.9 145.9,-395.9 					"/>
				</defs>
				<clipPath id="SVGID_16_">
					<use xlink:href="#SVGID_15_"  style="overflow:visible;"/>
				</clipPath>
				<g id="g220" class="st37">
					<path id="path226" class="st38" d="M168.6-373.8c-4.2-0.1-8.2-1.5-11.5-4c-2.9-2-5.2-4.7-6.7-7.8c-1.1-2.6-1.6-5.4-1.6-8.2
						c0-0.4,0-0.7,0-1.1l27.3,9v10c-1.8,1.1-3.8,1.8-5.9,2C169.6-373.8,169.1-373.8,168.6-373.8"/>
				</g>
			</g>
		</g>
		<path id="path228" class="st17" d="M151.3-444.8c-9.7,4.1-18.9,39.8-6.8,55.2s40.9,12.5,50.9,0.7
			C203.5-398.4,191.5-462,151.3-444.8"/>
		<path id="path230" class="st39" d="M179.9-423.3c-1.7,0.8,1.3,17.5,1.3,17.5c2.3,0.3,9.4-3.5,9.4-5
			C190.6-410.8,183.1-424.9,179.9-423.3"/>
		<path id="path232" class="st36" d="M132.5-408.3c0.2-2.8,2.6-5,5.1-6.1s6.6,5.4,9.4,5.3c4.6-0.2,8.3-2.5,8.8-4.3
			c0.4-1.3,0.1-16.8,2-19c3.3-3.8,9-4,14-3.9s10.7-0.3,13.9-4.2c0.8-0.9,1.2-2,1.4-3.1c0.1-1.8-0.4-3.6-1.6-5.1
			c-3.7-5-10.5-6.7-16.7-6.4c-10.2,0.7-19.7,5.5-26.3,13.4c-6.5,7.9-10.1,17.7-10.1,27.9"/>
		<path id="path234" class="st17" d="M148.6-406.5c0,0,1.2-18.7-8.4-16s-7.3,21.5,3.6,21.1"/>
		<path id="path236" class="st36" d="M164.1-423.8c-0.4,0.9,0.8,3.5,2.1,3.3s7.9-1.1,8.6-2.6c0.5-1.4-0.1-3-1.4-3.8
			C172.5-427.3,164.6-425,164.1-423.8"/>
		<path id="path238" class="st36" d="M184.7-428.9c-0.5,0.9,0.4,3.5,1.6,3.5s7.1-0.2,7.9-1.6c0.6-1.3,0.3-2.9-0.8-3.9
			C192.5-431.3,185.3-430,184.7-428.9"/>
		<path id="path240" class="st40" d="M172.6-412.8c0.5,0.2,1.1,0.2,1.6,0c0.9-0.1,1.6-0.8,1.8-1.7c0.1-1-0.1-2-0.5-2.9
			c-0.2-0.5-0.5-0.9-0.8-1.3c-0.5-0.8-1.6-1-2.4-0.5c-0.2,0.1-0.4,0.3-0.5,0.5C170.8-417.4,170.9-413.6,172.6-412.8"/>
		<path id="path242" class="st40" d="M188.9-416.7c0.5,0.2,1.1,0.2,1.6,0c0.9-0.1,1.6-0.8,1.8-1.7c0.1-1-0.1-2-0.5-2.9
			c-0.2-0.5-0.5-0.9-0.8-1.3c-0.5-0.8-1.6-1-2.4-0.5c-0.2,0.1-0.4,0.3-0.5,0.5C187-421.4,187.1-417.5,188.9-416.7"/>
		<path id="path244" class="st39" d="M145.9-414.3c-0.1-1.9-1.3-3.7-3-4.6c-1.2-0.7-2.7-0.6-3.8,0.1c-1.2,0.8-1.5,2.4-0.7,3.5
			c0.4,0.5,1.1,0.9,1.3,1.5c0.1,0.7-0.1,1.3-0.4,1.9c-0.6,1.2-0.7,2.9,0.2,3.9c0.6,0.6,1.5,0.8,2.3,0.6
			C144.2-408.1,146.1-412,145.9-414.3"/>
		<path id="path246" class="st17" d="M140.8-292.9c0,0,7.7-3.5,9.6-3.8s3,1.5,2.5,2.5s-6,4.3-6,4.3"/>
		<path id="path248" class="st41" d="M613.2-466.2c0,4.6-3.7,8.3-8.3,8.3l0,0c-4.6,0-8.3-3.7-8.3-8.3l0,0c0-4.6,3.7-8.3,8.3-8.3l0,0
			C609.5-474.5,613.2-470.8,613.2-466.2L613.2-466.2"/>
		<path id="path250" class="st3" d="M597.5-552.8c0,4.4-3.6,7.9-7.9,7.9c-4.4,0-7.9-3.6-7.9-7.9c0,0,0,0,0,0c0-4.4,3.6-7.9,7.9-7.9
			c0,0,0,0,0,0C593.9-560.8,597.5-557.2,597.5-552.8"/>
		<path id="path252" class="st7" d="M524.9-592.6c2.4,2.4,2.4,6.3,0,8.7c0,0,0,0,0,0c-2.4,2.4-6.3,2.4-8.7,0c-2.4-2.4-2.4-6.3,0-8.7
			c0,0,0,0,0,0C518.6-595,522.5-595,524.9-592.6C524.9-592.6,524.9-592.6,524.9-592.6"/>
		<path id="path254" class="st7" d="M623.7-288.4c2.4,2.4,2.4,6.3,0,8.7c0,0,0,0,0,0c-2.4,2.4-6.3,2.4-8.7,0c-2.4-2.4-2.4-6.3,0-8.7
			C617.4-290.8,621.3-290.8,623.7-288.4C623.7-288.4,623.7-288.4,623.7-288.4"/>
		<path id="path256" class="st7" d="M465.7-603.5c0,3.2-2.6,5.8-5.8,5.8c-3.2,0-5.8-2.6-5.8-5.8c0,0,0,0,0,0c0-3.2,2.6-5.8,5.8-5.8
			S465.7-606.7,465.7-603.5"/>
		<path id="path258" class="st7" d="M57.1-201.6c0,3.2-2.6,5.8-5.8,5.8c-3.2,0-5.8-2.6-5.8-5.8c0-3.2,2.6-5.8,5.8-5.8c0,0,0,0,0,0
			C54.5-207.5,57.1-204.9,57.1-201.6L57.1-201.6"/>
		<path id="path260" class="st12" d="M507.9-550c0,1.6-1.3,2.8-2.8,2.8c0,0,0,0,0,0c-1.6,0-2.8-1.3-2.8-2.8l0,0
			c0-1.6,1.3-2.8,2.8-2.8C506.6-552.8,507.9-551.6,507.9-550"/>
		<path id="path262" class="st12" d="M587.5-606.4c0,1.6-1.3,2.9-2.9,2.9c0,0,0,0,0,0c-1.6,0-2.9-1.3-2.9-2.9c0,0,0,0,0,0
			c0-1.6,1.3-2.9,2.9-2.9l0,0C586.2-609.3,587.5-608,587.5-606.4C587.5-606.4,587.5-606.4,587.5-606.4"/>
		<path id="path264" class="st12" d="M641.1-426.2c0,1.6-1.3,2.9-2.9,2.9c-1.6,0-2.9-1.3-2.9-2.9s1.3-2.9,2.9-2.9
			C639.8-429.1,641.1-427.8,641.1-426.2"/>
		<path id="path266" class="st6" d="M361-582.3c0,3.3-2.6,5.9-5.9,5.9c0,0,0,0,0,0c-3.3,0-5.9-2.6-5.9-5.9c0,0,0,0,0,0
			c0-3.3,2.6-5.9,5.9-5.9c0,0,0,0,0,0C358.3-588.2,361-585.6,361-582.3L361-582.3"/>
		<path id="path268" class="st12" d="M211.7-513.1c0,2.9-2.3,5.2-5.2,5.2c0,0,0,0,0,0c-2.9,0-5.2-2.3-5.2-5.2l0,0
			c0-2.9,2.3-5.2,5.2-5.2c0,0,0,0,0,0C209.4-518.3,211.7-516,211.7-513.1L211.7-513.1"/>
		<path id="path270" class="st7" d="M211.7-564.1c0,3.9-3.1,7-7,7h0c-3.9,0-7-3.1-7-7l0,0c0-3.9,3.1-7,7-7c0,0,0,0,0,0
			C208.6-571,211.7-567.9,211.7-564.1C211.7-564.1,211.7-564.1,211.7-564.1"/>
		<path id="path272" class="st7" d="M108.5-490c0,3.7-3,6.7-6.7,6.7c-3.7,0-6.7-3-6.7-6.7l0,0c0-3.7,3-6.7,6.7-6.7c0,0,0,0,0,0
			C105.5-496.7,108.5-493.7,108.5-490C108.5-490,108.5-490,108.5-490"/>
		<path id="path274" class="st3" d="M176-510.3c0,2.2-1.8,4-4,4c0,0,0,0,0,0c-2.2,0-4-1.8-4-4l0,0c0-2.2,1.8-4,4-4
			S176-512.5,176-510.3C176-510.3,176-510.3,176-510.3"/>
		<path id="path276" class="st3" d="M89.9-231.2c0,2.2-1.8,4-4,4c0,0,0,0,0,0c-2.2,0-4-1.8-4-4c0,0,0,0,0,0c0-2.2,1.8-4,4-4
			c0,0,0,0,0,0C88.1-235.3,89.9-233.5,89.9-231.2C89.9-231.3,89.9-231.3,89.9-231.2"/>
		<path id="path278" class="st6" d="M112.8-555.3c0,3-2.5,5.5-5.5,5.5l0,0c-3,0-5.5-2.5-5.5-5.5l0,0c0-3,2.5-5.5,5.5-5.5l0,0
			C110.3-560.8,112.8-558.3,112.8-555.3L112.8-555.3"/>
		<path id="path280" class="st41" d="M55.9-404.6c0,2.6-2.1,4.7-4.7,4.7s-4.7-2.1-4.7-4.7c0-2.6,2.1-4.7,4.7-4.7c0,0,0,0,0,0
			C53.8-409.3,55.9-407.2,55.9-404.6C55.9-404.6,55.9-404.6,55.9-404.6"/>
	</g>
</g>
</svg>
