<svg xmlns="http://www.w3.org/2000/svg" xmlns:xlink="http://www.w3.org/1999/xlink" width="606.209" height="526.354" viewBox="0 0 606.209 526.354">
  <defs>
    <clipPath id="clip-path">
      <path id="path46" d="M358.159-495.871H467.884v-36.887H358.159Z"/>
    </clipPath>
    <clipPath id="clip-path-2">
      <path id="path116" d="M90.224-122.373,87.61-109.437s-16.491,3.581-17.486,7.363,34.628,1.194,34.628,1.194l3.781-21.493H90.224"/>
    </clipPath>
    <clipPath id="clip-path-3">
      <path id="path128" d="M179.781-122.373l-.412,12.936s16.492,3.581,17.487,7.363-34.628,1.194-34.628,1.194l-.756-21.493h18.309"/>
    </clipPath>
    <clipPath id="clip-path-4">
      <path id="path144" d="M112.81-273.706S95.823-177.5,87.61-119.929c17.65,1.941,21.361.757,21.361.757l32.777-117.623h14.391c1.061,1.136,4.305,117.623,4.305,117.623s14.808,2.192,20.64-.835c0,0,6.66-89.65,8.452-138.264L112.81-273.706"/>
    </clipPath>
    <clipPath id="clip-path-5">
      <path id="path156" d="M159.749-372.871s-18.621,1.064-23.788,6.059-16.2,38.943-23.151,93.106c27.738,29.251,76.725,15.436,76.725,15.436s2.492-98.689-.14-103.653c-5.029-9.491-29.647-10.948-29.647-10.948"/>
    </clipPath>
    <clipPath id="clip-path-6">
      <path id="path168" d="M38.717-268.146,35.233-280.3a9.845,9.845,0,0,1,6.751-12.176l174.651-50.069,8.911,31.081L50.894-261.4a9.844,9.844,0,0,1-12.177-6.749"/>
    </clipPath>
    <clipPath id="clip-path-7">
      <path id="path202" d="M216.634-342.547l30.043,8.205-21.132,22.876-8.911-31.081"/>
    </clipPath>
    <clipPath id="clip-path-8">
      <path id="path222" d="M145.914-395.859l3.659,28.027,14.415,12.272L176-367.832V-385.9l-30.083-9.963"/>
    </clipPath>
  </defs>
  <g id="g10" transform="translate(-34.849 609.332)">
    <g id="g12">
      <path id="path16" d="M225.723-194.393a152.233,152.233,0,0,1-39.248-5.235c1.132-18.453,2.179-37.215,2.827-52.729h0q.128-3.046.233-5.913h0s.315-12.484.6-28.8h0c.08-4.535.159-9.373.227-14.313l35.18-10.085-8.911-31.081L190.6-335.082c-.047-14.279-.367-25.268-1.2-26.841-1.455-2.745-4.548-4.819-8.211-6.379l2.368-2.592A34.738,34.738,0,0,0,176-372.679v-3.181h0V-385.9l-28.317-9.377c4.953-17.477,35.92-33.743,42.539-36.628,7.519-3.277,3.007-20.488.26-26.1-.992-2.029-2.563-2.6-4.713-2.6a41.826,41.826,0,0,0-4.82.463,49.094,49.094,0,0,1-6.236.463,31.664,31.664,0,0,1-5.779-.52,34.6,34.6,0,0,0-6.287-.609c-7.207,0-10.465,2.677-10.465,2.677a67.675,67.675,0,0,0-2.9-6.24c-3.248,2.967-.663,7.1-.663,7.1a4.231,4.231,0,0,0-1.863-.441c-1.721,0-4.133,1.161-4.951,7.244-9.239.053-17.2,9.513-16.971,16.2s4.57,38.513,10.678,44.063c2.048,1.86,6.685,2.16,9.472,2.16.877,0,1.571-.029,1.943-.049l2.04,15.627a67.912,67.912,0,0,0-8.747,2.359l.672.572a14.117,14.117,0,0,0-4.932,2.724c-3.7,3.579-10.419,22.021-16.484,52.119L75.766-302.163c-4.077-13.776-5.509-28.156-3.119-42.309,8.106-48,56.716-81.369,65.024-129.334,5.123-29.579-5.858-61.624,5.973-89.213,11.139-25.972,40.751-40.528,69.016-40.528h.153c28.309.055,55.248,12.285,79.22,27.345,22.484,14.125,43.264,30.925,66.125,44.391v3.957H253.577v330.71q-3.272.65-6.583,1.155a141.184,141.184,0,0,1-21.271,1.6m-68.168-15.993A167.034,167.034,0,0,1,137.57-221.8l4.177-14.992h14.391c.321.345.844,11.305,1.417,26.408M108.14-246.851a155.072,155.072,0,0,1-14.794-18.671q-2.245-3.334-4.32-6.807l24.534-7.033q-.382,2.79-.75,5.656h0s-1.87,10.592-4.67,26.855" fill="#dff1f4"/>
      <path id="path18" d="M572.467-139.881V-407.2c3.78-5.28,8.232-9.829,14.1-12.581a26.824,26.824,0,0,1,11.456-2.491c11.337,0,22.919,6.541,29.363,16.213,8.673,13.017,9.387,30.016,5.82,45.245s-10.968,29.231-17.683,43.359-12.9,28.929-13.732,44.549c-1.375,25.765,11.927,51.068,8.273,76.609-2.052,14.356-9.393,27.527-18.62,38.712a91.908,91.908,0,0,1-18.975,17.7" fill="#fdecc0"/>
      <path id="path20" d="M333.1-82.977c-162.765,0-294.713-7.452-294.713-16.646,0-3.266,16.654-6.312,45.43-8.883-4.934,1.308-13,3.823-13.689,6.432-.42,1.6,5.689,2.058,12.886,2.058,9.851,0,21.742-.864,21.742-.864l1.651-9.381c16.168-1.1,34.795-2.076,55.393-2.909l.432,12.29s11.891.864,21.741.864c7.2,0,13.307-.461,12.887-2.058-.995-3.782-17.487-7.363-17.487-7.363l.14-4.4c22.82-.788,47.709-1.407,74.068-1.823v13.233h318.89v-6.913c34.827,2.733,55.343,6.088,55.343,9.712,0,9.195-131.948,16.646-294.714,16.646" fill="#e3e5e4"/>
      <path id="path22" d="M253.577-102.423h318.89V-527.855H253.577Z" fill="#2b5873"/>
      <path id="path24" d="M552.949-118.077H273.093v-6.509H552.949v6.509" fill="#22485f"/>
      <path id="path26" d="M273.093-124.586H552.949v-381.1H273.093Z" fill="#fff"/>
      <path id="path28" d="M252.175-501.376v-27.879h27.88Z" fill="#d97a45"/>
      <path id="path30" d="M573.867-501.376v-27.879h-27.88Z" fill="#d97a45"/>
      <path id="path32" d="M252.175-127.814v27.88h27.88Z" fill="#d97a45"/>
      <path id="path34" d="M573.867-127.814v27.88h-27.88Z" fill="#d97a45"/>
      <path id="path36" d="M413.022-517.373h0c-11,0-19.924,5.087-19.924-5.916v-1.689A19.922,19.922,0,0,1,413.022-544.9a19.922,19.922,0,0,1,19.923,19.923v1.689c0,11-8.92,5.916-19.923,5.916" fill="#fbc552"/>
      <path id="path38" d="M360.99-492.012H465.052v-3.858H360.99Z" fill="#c9cdcc"/>
      <path id="path40" d="M358.159-495.871H467.884v-36.887H358.159Z" fill="#fbc552"/>
      <g id="g42">
        <g id="g44" clip-path="url(#clip-path)">
          <path id="path50" d="M467.884-495.871H358.159v-16.62H467.884v16.62" fill="#f49e48"/>
        </g>
      </g>
      <path id="path52" d="M339.376-396.792H301.09V-435.08h38.287v38.288" fill="#a1d6e1"/>
      <path id="path54" d="M298.437-394.138h43.595v-43.6H298.437Zm44.995,1.4h-46.4v-46.4h46.4v46.4" fill="#a1d6e1"/>
      <path id="path56" d="M339.376-338.131H301.09v-38.287h38.287v38.287" fill="#a1d6e1"/>
      <path id="path58" d="M298.437-335.477h43.595v-43.595H298.437Zm44.995,1.4h-46.4v-46.4h46.4v46.4" fill="#a1d6e1"/>
      <path id="path60" d="M339.376-279.469H301.09v-38.287h38.287v38.287" fill="#a1d6e1"/>
      <path id="path62" d="M298.437-276.814h43.595v-43.6H298.437Zm44.995,1.4h-46.4v-46.4h46.4v46.4" fill="#a1d6e1"/>
      <path id="path64" d="M316.819-402.528l-22.1-21.869a3.9,3.9,0,0,1-.029-5.509,3.9,3.9,0,0,1,5.511-.029l16.313,16.143,25.891-28.6a3.892,3.892,0,0,1,5.5-.273,3.893,3.893,0,0,1,.272,5.5l-31.355,34.635" fill="#3a809b"/>
      <path id="path66" d="M316.819-343.424l-22.1-21.871a3.9,3.9,0,0,1-.029-5.509,3.9,3.9,0,0,1,5.511-.028L316.51-354.69l25.891-28.6a3.893,3.893,0,0,1,5.5-.272,3.893,3.893,0,0,1,.272,5.5l-31.355,34.635" fill="#3a809b"/>
      <path id="path68" d="M316.819-285.722l-22.1-21.869a3.9,3.9,0,0,1-.029-5.509,3.9,3.9,0,0,1,5.511-.031l16.313,16.145,25.891-28.6a3.893,3.893,0,0,1,5.5-.275,3.9,3.9,0,0,1,.272,5.5l-31.355,34.635" fill="#3a809b"/>
      <path id="path70" d="M339.376-220.806H301.09v-38.287h38.287v38.287" fill="#a1d6e1"/>
      <path id="path72" d="M298.437-218.153h43.595v-43.595H298.437Zm44.995,1.4h-46.4v-46.4h46.4v46.4" fill="#a1d6e1"/>
      <path id="path74" d="M339.376-162.144H301.09v-38.288h38.287v38.288" fill="#a1d6e1"/>
      <path id="path76" d="M298.437-159.49h43.595v-43.595H298.437Zm44.995,1.4h-46.4v-46.4h46.4v46.4" fill="#a1d6e1"/>
      <path id="path78" d="M526.721-424.723H357.287v-4.62H526.721v4.62" fill="#3a809b"/>
      <path id="path80" d="M526.721-413.626H357.287v-4.621H526.721v4.621" fill="#3a809b"/>
      <path id="path82" d="M409.667-402.528h-52.38v-4.621h52.38v4.621" fill="#3a809b"/>
      <path id="path84" d="M526.721-366.8H357.287v-4.62H526.721v4.62" fill="#3a809b"/>
      <path id="path86" d="M526.721-355.7H357.287v-4.62H526.721v4.62" fill="#3a809b"/>
      <path id="path88" d="M468-344.6H357.287v-4.62H468v4.62" fill="#3a809b"/>
      <path id="path90" d="M526.721-308.874H357.287V-313.5H526.721v4.621" fill="#3a809b"/>
      <path id="path92" d="M502.208-297.778H357.287v-4.62H502.208v4.62" fill="#3a809b"/>
      <path id="path94" d="M409.667-286.681h-52.38V-291.3h52.38v4.621" fill="#3a809b"/>
      <path id="path96" d="M526.721-250.951H357.287v-4.62H526.721v4.62" fill="#3a809b"/>
      <path id="path98" d="M442.676-239.854H357.287v-4.62h85.389v4.62" fill="#3a809b"/>
      <path id="path100" d="M526.721-193.028H357.287v-4.619H526.721v4.619" fill="#3a809b"/>
      <path id="path102" d="M526.721-181.929H357.287v-4.621H526.721v4.621" fill="#3a809b"/>
      <path id="path104" d="M480.828-170.833H357.287v-4.62H480.828v4.62" fill="#3a809b"/>
      <path id="path106" d="M493.8-465.055H332.711v-11.417H493.8v11.417" fill="#3a809b"/>
      <path id="path108" d="M417.606-536.016a4.584,4.584,0,0,1-4.584,4.584,4.585,4.585,0,0,1-4.585-4.584,4.586,4.586,0,0,1,4.585-4.585,4.585,4.585,0,0,1,4.584,4.585" fill="#fff"/>
      <path id="path110" d="M90.224-122.373,87.61-109.437s-16.491,3.581-17.486,7.363,34.628,1.194,34.628,1.194l3.781-21.493H90.224" fill="#456293"/>
      <g id="g112">
        <g id="g114" clip-path="url(#clip-path-2)">
          <path id="path120" d="M103.263-114.326c-.216,0-.432,0-.647-.007a33.491,33.491,0,0,1-9.274-1.536,23.654,23.654,0,0,1-4.091-1.692l.434-2.148c6.783.7,11.29.895,14.229.895a35.392,35.392,0,0,0,4.025-.181l-.767,4.358a23.253,23.253,0,0,1-3.909.311" fill="#3f5986"/>
        </g>
      </g>
      <path id="path122" d="M179.781-122.373l-.412,12.936s16.492,3.581,17.487,7.363-34.628,1.194-34.628,1.194l-.756-21.493h18.309" fill="#456293"/>
      <g id="g124">
        <g id="g126" clip-path="url(#clip-path-3)">
          <path id="path132" d="M166.058-113.144a42.346,42.346,0,0,1-4.272-.3l-.2-5.58a81.9,81.9,0,0,0,9.476.616,29.347,29.347,0,0,0,8.621-1.024l-.04,1.232a21.958,21.958,0,0,1-12.619,5.013c-.277.028-.607.04-.971.04" fill="#3f5986"/>
        </g>
      </g>
      <path id="path134" d="M253-422.068s-12.244-3.813-11.985-7.364,8.511-.651,8.511-.651-4.593-16.905-2.62-18.279,4.956,9.2,4.956,9.2.569-10.312,3.233-10.119,2.153,8.457,2.153,8.457,2.976-6.568,5.575-5.487-1.677,8.247-1.677,8.247,6.6-3.737,7.639-1.944-4.149,7.761-4.149,7.761,6.409,6.043-1.316,17.637c-2.119-.891-8.128-3.668-11.267-3.017l.948-4.439" fill="#fac0aa"/>
      <path id="path136" d="M173.57-370.746s55.4,4.9,76.582-48.823c15.129-2.279,15.129,8.405,15.129,8.405S244.333-332.5,179.338-342.8" fill="#fcd041"/>
      <path id="path138" d="M112.81-273.706S95.823-177.5,87.61-119.929c17.65,1.941,21.361.757,21.361.757l32.777-117.623h14.391c1.061,1.136,4.305,117.623,4.305,117.623s14.808,2.192,20.64-.835c0,0,6.66-89.65,8.452-138.264L112.81-273.706" fill="#7285cb"/>
      <g id="g140">
        <g id="g142" clip-path="url(#clip-path-4)">
          <path id="path148" d="M154.354-247.177a125.308,125.308,0,0,1-44.719-8.335c1.95-11.26,3.174-18.195,3.174-18.195h0c14.264,15.041,34.148,18.695,50.1,18.7a108.564,108.564,0,0,0,26.627-3.26q-.106,2.866-.233,5.913a122.009,122.009,0,0,1-25.505,4.809q-4.714.372-9.443.371" fill="#677bbd"/>
        </g>
      </g>
      <path id="path150" d="M159.749-372.871s-18.621,1.064-23.788,6.059-16.2,38.943-23.151,93.106c27.738,29.251,76.725,15.436,76.725,15.436s2.492-98.689-.14-103.653c-5.029-9.491-29.647-10.948-29.647-10.948" fill="#fcd041"/>
      <g id="g152">
        <g id="g154" clip-path="url(#clip-path-5)">
          <path id="path160" d="M141.542-272.39c-2.024,0-4.077-.079-6.152-.247a54.866,54.866,0,0,1-21.253-6.891l76.227-21.853c-.068,4.94-.147,9.779-.227,14.313-11.327,6.967-28.62,14.679-48.6,14.677" fill="#f4af3c"/>
        </g>
      </g>
      <path id="path162" d="M38.717-268.146,35.233-280.3a9.845,9.845,0,0,1,6.751-12.176l174.651-50.069,8.911,31.081L50.894-261.4a9.844,9.844,0,0,1-12.177-6.749" fill="#dc6b59"/>
      <g id="g164">
        <g id="g166" clip-path="url(#clip-path-6)">
          <path id="path172" d="M198.81-313.593,194.738-327.8l5.788-1.659,4.072,14.2-5.788,1.66" fill="#eaa396"/>
          <path id="path174" d="M57.867-273.187l-4.072-14.205,5.378-1.541,4.072,14.205-5.377,1.541" fill="#eaa396"/>
          <path id="path176" d="M18.645-233.569-.11-298.993l46.738-13.4,18.756,65.424-46.738,13.4" fill="#2b5873"/>
          <path id="path178" d="M65.838-265.681l-2.594-9.048L198.81-313.593l2.595,9.048-11.04,3.164-76.227,21.853-.578.165-24.534,7.033-23.188,6.648" fill="#c74647"/>
          <path id="path180" d="M207.191-306.2l-2.593-9.048,18.352-5.261,2.595,9.048L207.191-306.2" fill="#c74647"/>
          <path id="path182" d="M201.4-304.545l-2.595-9.048,5.788-1.66,2.593,9.048-5.787,1.66" fill="#d36373"/>
          <path id="path184" d="M60.461-264.139l-2.594-9.048,5.377-1.541,2.594,9.048-5.377,1.541" fill="#d36373"/>
          <path id="path186" d="M48.175-261.013a9.85,9.85,0,0,1-9.331-6.721l19.022-5.453,2.594,9.048L50.894-261.4a9.849,9.849,0,0,1-2.718.384" fill="#1f3952"/>
          <path id="path188" d="M59.172-288.934l-2.245-7.829,135.566-38.863,2.244,7.828L59.171-288.934m141.354-40.523-2.245-7.829,18.353-5.261,2.244,7.829-18.352,5.261" fill="#d35b52"/>
          <path id="path190" d="M194.738-327.8l-2.244-7.828,5.787-1.66,2.245,7.829-5.788,1.659" fill="#e08988"/>
          <path id="path192" d="M53.795-287.393l-2.244-7.828,5.377-1.543,2.245,7.829-5.378,1.541" fill="#e08988"/>
          <path id="path194" d="M34.9-281.977a9.742,9.742,0,0,1-.056-1.049,9.849,9.849,0,0,1,7.134-9.452l9.567-2.743,2.244,7.828L34.9-281.977" fill="#274c67"/>
        </g>
      </g>
      <path id="path196" d="M216.634-342.547l30.043,8.205-21.132,22.876Z" fill="#fce892"/>
      <g id="g198">
        <g id="g200" clip-path="url(#clip-path-7)">
          <path id="path206" d="M260.487-317.585A19.475,19.475,0,0,1,236.4-330.938a19.476,19.476,0,0,1,13.353-24.088,19.475,19.475,0,0,1,24.087,13.355,19.472,19.472,0,0,1-13.353,24.087" fill="#3a809b"/>
        </g>
      </g>
      <path id="path208" d="M132.262-294.331s9.2-.476,13.325,1.268,6.12,2.775,6.12,2.775l8.228-2.359s-1.987,10.835-11.821,11.627a50.621,50.621,0,0,1-18.231-2.049l2.38-11.261" fill="#fac0aa"/>
      <path id="path210" d="M149.1-371.415S91-367.832,86.1-316.533c-3.375,35.279,45.821,37.061,45.821,37.061l2.3-15.636s-20.655-8.556-20.655-21.189,22.394-21.977,22.394-21.977L149.1-371.415" fill="#fcd041"/>
      <path id="path212" d="M160.429-373.718a67.466,67.466,0,0,0-20.208,3.609l24,20.381,19.329-21.167s-6.6-2.824-23.124-2.824" fill="#f79942"/>
      <path id="path214" d="M147.228-388.112s-8.688.657-11.715-2.092c-6.108-5.549-10.449-37.377-10.678-44.063s7.732-16.147,16.971-16.2c1.321-9.837,6.813-6.8,6.813-6.8s-2.585-4.133.663-7.1a67.668,67.668,0,0,1,2.9,6.24s5.129-4.215,16.752-2.068a37.562,37.562,0,0,0,12.015.057c4.732-.595,7.909-1.188,9.533,2.135,2.747,5.616,7.259,22.827-.26,26.1s-46.451,23.819-42.991,43.789" fill="#24325e"/>
      <path id="path216" d="M145.914-395.859l3.659,28.027,14.415,12.272L176-367.832V-385.9l-30.083-9.963" fill="#fac0aa"/>
      <g id="g218">
        <g id="g220" clip-path="url(#clip-path-8)">
          <path id="path226" d="M168.557-373.8a20.213,20.213,0,0,1-11.525-4,19.5,19.5,0,0,1-6.677-7.845,22.667,22.667,0,0,1-1.637-8.213q-.02-.54-.027-1.083L176-385.9v10.036a14.123,14.123,0,0,1-5.933,1.991c-.5.049-1,.072-1.507.072" fill="#f89f97"/>
        </g>
      </g>
      <path id="path228" d="M151.262-444.792c-9.657,4.131-18.852,39.811-6.821,55.189s40.851,12.465,50.872.743c8.161-9.547-3.811-73.143-44.051-55.932" fill="#fac0aa"/>
      <path id="path230" d="M179.852-423.323c-1.693.809,1.339,17.517,1.339,17.517,2.287.3,9.412-3.509,9.412-5,0,0-7.528-14.053-10.751-12.515" fill="#f78d81"/>
      <path id="path232" d="M132.519-408.267c.157-2.8,2.552-4.989,5.11-6.129s6.567,5.4,9.363,5.251c4.557-.241,8.287-2.472,8.791-4.327.357-1.313.053-16.751,1.987-18.963,3.291-3.764,8.968-3.968,13.968-3.929s10.707-.287,13.861-4.164a6.3,6.3,0,0,0,1.423-3.1,7.236,7.236,0,0,0-1.605-5.059c-3.668-5.013-10.5-6.7-16.7-6.355a37.851,37.851,0,0,0-26.268,13.356,43.881,43.881,0,0,0-10.089,27.915" fill="#24325e"/>
      <path id="path234" d="M148.641-406.476s1.2-18.656-8.377-15.961-7.312,21.469,3.588,21.107" fill="#fac0aa"/>
      <path id="path236" d="M164.074-423.839c-.429.947.8,3.456,2.148,3.252s7.927-1.055,8.587-2.6a3.152,3.152,0,0,0-1.393-3.763c-.912-.317-8.808,1.94-9.341,3.113" fill="#24325e"/>
      <path id="path238" d="M184.661-428.871c-.479.892.352,3.524,1.564,3.471s7.125-.165,7.869-1.629a3.378,3.378,0,0,0-.843-3.895c-.775-.416-8,.948-8.591,2.053" fill="#24325e"/>
      <path id="path240" d="M172.616-412.819a2.237,2.237,0,0,0,1.56.015,2.19,2.19,0,0,0,1.771-1.68,5.08,5.08,0,0,0-.547-2.881,5.707,5.707,0,0,0-.8-1.337,1.75,1.75,0,0,0-2.923-.023c-.865,1.291-.771,5.144.935,5.907" fill="#132b38"/>
      <path id="path242" d="M188.852-416.744a2.229,2.229,0,0,0,1.56.013,2.187,2.187,0,0,0,1.771-1.679,5.08,5.08,0,0,0-.547-2.881,5.744,5.744,0,0,0-.8-1.339,1.752,1.752,0,0,0-2.923-.023c-.865,1.292-.771,5.144.935,5.908" fill="#132b38"/>
      <path id="path244" d="M145.9-414.332a5.654,5.654,0,0,0-2.991-4.592,3.87,3.87,0,0,0-3.845.071,2.549,2.549,0,0,0-.7,3.523c.427.531,1.124.873,1.324,1.525a2.783,2.783,0,0,1-.428,1.873c-.56,1.248-.733,2.868.211,3.857a2.352,2.352,0,0,0,2.279.612c2.443-.667,4.319-4.56,4.153-6.869" fill="#f78d81"/>
      <path id="path246" d="M140.8-292.87s7.692-3.531,9.647-3.783,2.963,1.5,2.457,2.515-5.987,4.293-5.987,4.293" fill="#fac0aa"/>
      <path id="path248" d="M613.205-466.17a8.32,8.32,0,0,1-8.32,8.32,8.32,8.32,0,0,1-8.32-8.32,8.32,8.32,0,0,1,8.32-8.32,8.32,8.32,0,0,1,8.32,8.32" fill="#e34b53"/>
      <path id="path250" d="M597.495-552.837a7.936,7.936,0,0,1-7.935,7.936,7.935,7.935,0,0,1-7.936-7.936,7.934,7.934,0,0,1,7.936-7.935,7.935,7.935,0,0,1,7.935,7.935" fill="#2b5873"/>
      <path id="path252" d="M524.915-592.584a6.165,6.165,0,0,1,0,8.721,6.166,6.166,0,0,1-8.72,0,6.165,6.165,0,0,1,0-8.721,6.164,6.164,0,0,1,8.72,0" fill="#fbc552"/>
      <path id="path254" d="M623.732-288.438a6.165,6.165,0,0,1,0,8.721,6.168,6.168,0,0,1-8.721,0,6.167,6.167,0,0,1,0-8.721,6.165,6.165,0,0,1,8.721,0" fill="#fbc552"/>
      <path id="path256" d="M465.736-603.493a5.84,5.84,0,0,1-5.839,5.84,5.839,5.839,0,0,1-5.839-5.84,5.839,5.839,0,0,1,5.839-5.839,5.839,5.839,0,0,1,5.839,5.839" fill="#fbc552"/>
      <path id="path258" d="M57.067-201.649a5.84,5.84,0,0,1-5.839,5.84,5.84,5.84,0,0,1-5.84-5.84,5.839,5.839,0,0,1,5.84-5.839,5.839,5.839,0,0,1,5.839,5.839" fill="#fbc552"/>
      <path id="path260" d="M507.865-550.009a2.828,2.828,0,0,1-2.829,2.828,2.828,2.828,0,0,1-2.828-2.828,2.829,2.829,0,0,1,2.828-2.828,2.829,2.829,0,0,1,2.829,2.828" fill="#3a809b"/>
      <path id="path262" d="M587.463-606.413a2.919,2.919,0,0,1-2.92,2.92,2.919,2.919,0,0,1-2.919-2.92,2.919,2.919,0,0,1,2.919-2.919,2.919,2.919,0,0,1,2.92,2.919" fill="#3a809b"/>
      <path id="path264" d="M641.058-426.207a2.921,2.921,0,0,1-2.92,2.92,2.92,2.92,0,0,1-2.92-2.92,2.92,2.92,0,0,1,2.92-2.92,2.921,2.921,0,0,1,2.92,2.92" fill="#3a809b"/>
      <path id="path266" d="M360.99-582.32a5.9,5.9,0,0,1-5.9,5.9,5.9,5.9,0,0,1-5.905-5.9,5.9,5.9,0,0,1,5.905-5.9,5.9,5.9,0,0,1,5.9,5.9" fill="#d97a45"/>
      <path id="path268" d="M211.711-513.12a5.2,5.2,0,0,1-5.2,5.2,5.2,5.2,0,0,1-5.2-5.2,5.2,5.2,0,0,1,5.2-5.2,5.2,5.2,0,0,1,5.2,5.2" fill="#3a809b"/>
      <path id="path270" d="M211.711-564.053a6.99,6.99,0,0,1-6.991,6.989,6.99,6.99,0,0,1-6.991-6.989,6.991,6.991,0,0,1,6.991-6.992,6.991,6.991,0,0,1,6.991,6.992" fill="#fbc552"/>
      <path id="path272" d="M108.533-489.976a6.718,6.718,0,0,1-6.718,6.717,6.717,6.717,0,0,1-6.717-6.717,6.716,6.716,0,0,1,6.717-6.717,6.717,6.717,0,0,1,6.718,6.717" fill="#fbc552"/>
      <path id="path274" d="M176-510.308a4.006,4.006,0,0,1-4.007,4.005,4.005,4.005,0,0,1-4.005-4.005,4.006,4.006,0,0,1,4.005-4.007A4.006,4.006,0,0,1,176-510.308" fill="#2b5873"/>
      <path id="path276" d="M89.937-231.249a4.006,4.006,0,0,1-4.006,4.007,4.006,4.006,0,0,1-4.006-4.007,4,4,0,0,1,4.006-4,4,4,0,0,1,4.006,4" fill="#2b5873"/>
      <path id="path278" d="M112.81-555.275a5.5,5.5,0,0,1-5.5,5.5,5.5,5.5,0,0,1-5.5-5.5,5.5,5.5,0,0,1,5.5-5.5,5.5,5.5,0,0,1,5.5,5.5" fill="#d97a45"/>
      <path id="path280" d="M55.918-404.615a4.69,4.69,0,0,1-4.69,4.689,4.69,4.69,0,0,1-4.69-4.689,4.689,4.689,0,0,1,4.69-4.689,4.689,4.689,0,0,1,4.69,4.689" fill="#e34b53"/>
    </g>
  </g>
</svg>
