<svg id="Group_92" data-name="Group 92" xmlns="http://www.w3.org/2000/svg" width="809.408" height="428.412" viewBox="0 0 809.408 428.412">
  <path id="Path_145" data-name="Path 145" d="M134.424,470.569c-35.851-28.728-74.139-61.386-82.416-106.575-2.441-13.328-1.843-27.834,5.211-39.4s21.75-19.081,34.612-14.819c9.751,3.231,16.366,12.008,23.2,19.677,11.48,12.885,28.619,24.482,44.95,18.911,11.535-3.936,18.94-15.677,21.36-27.621s.771-24.283-.485-36.405c-1.952-18.852-2.9-38.16,1.774-56.529s15.713-35.884,32.606-44.477,39.859-6.144,51.95,8.45c12.375,14.936,10.591,36.493,11.064,55.884s7.019,42.461,25.679,47.757c12.15,3.447,25.5-2.614,33.737-12.19s12.207-22.067,14.89-34.409c3.951-18.173,5.538-36.764,7.251-55.282,1.026-11.076,2.167-22.4,6.87-32.478a49.1,49.1,0,0,1,86.876-4.033c10.669,18.235,8.524,41.24,2.862,61.594-4.263,15.327-10.362,30.406-11,46.3s5.739,33.438,20.072,40.341c14.064,6.775,31.411,1.192,43.445-8.755S529.2,272.9,538.71,260.515c11.559-15.055,25.818-28.837,43.63-35.4s39.677-4.544,53.267,8.708c4.376,4.267,7.828,9.7,8.76,15.744,1.188,7.707-1.8,15.476-5.763,22.19-10.187,17.262-26.831,30.07-36.583,47.582S593,363.583,611.16,372.061c9.122,4.258,19.774,2.555,29.693.847,22.661-3.9,46.258-7.334,68.369-1.019s42.335,25.114,42.827,48.1c.346,16.233-9.385,31.721-22.989,40.585s-30.541,11.636-46.712,10.163c-13.357-1.216-26.512-5.162-39.913-4.592s-27.927,7.248-32.026,20.02c-5.5,17.148,9.931,36.126,3.717,53.029-4.675,12.72-19.557,18.306-32.991,20.091-16.891,2.242-35.572.372-48.314-10.937-8.322-7.386-13.1-17.854-19.431-27-10.686-15.433-27.889-27.9-46.641-27.079-31.444,1.381-49.115,35.918-74.693,54.261-23.4,16.779-59.652,17.995-78.684-3.61-14.241-16.165-17.981-42.589-37.81-51.011-13.941-5.923-30.134.17-42.65,8.7s-23.543,19.626-37.588,25.3c-20.238,8.174-45.182,2.908-60.388-12.749s-19.741-40.746-10.977-60.735" transform="translate(10.844 -132.725)" fill="#f9df5a" opacity="0.12"/>
  <g id="Group_3" data-name="Group 3" transform="translate(443.357 25.367)">
    <path id="Path_146" data-name="Path 146" d="M303.673,190.785c-2.1-.792-3.515-2.787-4.426-4.842-3.392-7.648-1.372-16.529,1.18-24.5,1.025-3.2,2.224-6.529,4.743-8.755a2.589,2.589,0,0,1,1.408-.745c1.353-.126,2.136,1.481,2.451,2.8,2.889,12.1,2.03,26.024-5.356,36.036" transform="translate(-251.829 -144.023)" fill="#d7ecef"/>
    <path id="Path_147" data-name="Path 147" d="M313.27,174.073a35.428,35.428,0,0,1,5.545-11.168,54.4,54.4,0,0,1,3.814-4.511c5.126-5.538,11.5-10.894,19.048-11.024a4.5,4.5,0,0,1,2.86.695,3.455,3.455,0,0,1,1.09,3.283,8.739,8.739,0,0,1-1.486,3.284c-6.619,10.12-18.838,18.242-30.871,19.441" transform="translate(-240.25 -147.369)" fill="#d7ecef"/>
    <path id="Path_148" data-name="Path 148" d="M287.256,203.45c9.565-8.583,20.7-18.637,33.147-21.845a18.578,18.578,0,0,1,7.144-.677,8.781,8.781,0,0,1,6.1,3.468c2.08,3.047,1.363,7.265-.4,10.506a23.939,23.939,0,0,1-10.29,9.567,45.205,45.205,0,0,1-13.607,4.071,29.455,29.455,0,0,1-6.73.443,34.539,34.539,0,0,1-15.363-5.533" transform="translate(-259.299 -122.883)" fill="#d7ecef"/>
    <path id="Path_149" data-name="Path 149" d="M287.273,222.909a64.174,64.174,0,0,1-10.064-8.826,21.551,21.551,0,0,1-5.533-11.975,22.574,22.574,0,0,1,1.909-10.312,11.1,11.1,0,0,1,2.827-4.41,4.684,4.684,0,0,1,4.914-.911,5.866,5.866,0,0,1,1.9,1.663c4.37,5.38,5,12.819,5.051,19.749.035,4.736.695,10.329-.809,14.819" transform="translate(-270.75 -118.998)" fill="#d7ecef"/>
    <path id="Path_150" data-name="Path 150" d="M275.08,232.623a45.878,45.878,0,0,1,21.516-18.36c3.035-1.249,6.486-2.162,9.553-1a8.976,8.976,0,0,1,5.365,8.576,12.544,12.544,0,0,1-4.959,9.2,21.209,21.209,0,0,1-9.895,4c-7.123,1.138-15.268,1.077-21.58-2.415" transform="translate(-268.215 -99.509)" fill="#d7ecef"/>
    <path id="Path_151" data-name="Path 151" d="M366.2,151.536q-10.524,9.354-21.388,18.315a143.108,143.108,0,0,0-21.617,19.342q.751-11.859,2.191-23.657a.518.518,0,0,0-1.026-.14q-1.536,12.483-2.285,25.036c-14.714,16.424-25.845,35.924-34.129,56.522a125.269,125.269,0,0,1-6.624-25.622.519.519,0,0,0-1.027.139,126.493,126.493,0,0,0,6.936,26.542.466.466,0,0,0,.192.232c-2.829,7.154-5.318,14.435-7.5,21.759-3.579,12.024-6.406,24.255-8.8,36.566-.126.655.9.793,1.027.14,1.867-9.624,4.047-19.263,6.641-28.8,4.769-.244,9.178-2.153,13.588-3.839,4.726-1.807,9.794-3.291,14.028-6.122.556-.372-.074-1.2-.627-.825-4.14,2.768-9.172,4.221-13.8,5.988-4.2,1.606-8.388,3.407-12.9,3.736,4.93-17.882,11.36-35.366,20.053-51.621a.447.447,0,0,0,.3.036,162.948,162.948,0,0,0,37.515-13.233c.592-.294.2-1.254-.4-.956a161.871,161.871,0,0,1-36.824,13.061,173.058,173.058,0,0,1,21.861-31.664c.417-.478.851-.944,1.275-1.415a.41.41,0,0,0,.184-.2,143.737,143.737,0,0,1,21.565-19.575.489.489,0,0,0,.225-.1c.2-.165.392-.333.589-.5.244-.177.483-.362.728-.537a.474.474,0,0,0,.168-.215q10.4-8.614,20.5-17.572C367.321,151.92,366.7,151.092,366.2,151.536Z" transform="translate(-271.117 -144.411)" fill="#54a39b"/>
  </g>
  <g id="Group_6" data-name="Group 6" transform="translate(355.34 95.187)">
    <path id="Path_152" data-name="Path 152" d="M254.831,221.058a21.648,21.648,0,0,0,5.1,12.983c-7.281,3.563-16.394,2.86-24.165.558,2.957-3.146,4.573-6.243,4.457-10.56s-1.349-8.516-2.574-12.658q-.943-3.186-1.883-6.37" transform="translate(-208.987 -174.979)" fill="#f4c7b8"/>
    <path id="Path_153" data-name="Path 153" d="M256.463,197.238a16.082,16.082,0,0,1,4.485,10.092c.184,2.86-.492,6.467,1.668,8.351A11.792,11.792,0,0,0,265,217.265c.734.333.722,1.135.26,1.793a4.592,4.592,0,0,1-.769.693c-1,.9-1.072,2.4-1.161,3.738a31.581,31.581,0,0,1-1.044,6.214,1.5,1.5,0,0,1-.383.762,1.559,1.559,0,0,1-.987.272c-5.013.2-10.527.253-14.407-2.931-.823-.676-1.542-1.479-2.415-2.091-.722-.506-1.535-.871-2.278-1.346a9.017,9.017,0,0,1-3.6-4.514,4.854,4.854,0,0,1-.144-3.362,2.587,2.587,0,0,1,2.669-1.718,6.439,6.439,0,0,1,2.063,1.1,1.985,1.985,0,0,0,2.2.146c.7-.563.532-1.64.378-2.522a15.936,15.936,0,0,1,3.8-13.21" transform="translate(-207.472 -180.671)" fill="#ffd0bc"/>
    <path id="Path_154" data-name="Path 154" d="M236.833,210.089a5.048,5.048,0,0,0-3.459,4.623,6.8,6.8,0,0,0,2.574,5.372,7.324,7.324,0,0,1,1.124,1.006c1.131,1.427.442,3.544.928,5.3a4.292,4.292,0,0,0,6.446,2.082,4.549,4.549,0,0,0-.1-6.907c-.594-.449-1.3-.748-1.848-1.254a1.781,1.781,0,0,1-.575-2,1.8,1.8,0,0,1,1.928-.738c.728.12,1.4.473,2.119.627a3.96,3.96,0,0,0,4.656-4.887,3.862,3.862,0,0,1-.263-1.287c.08-.991,1.171-1.524,2.1-1.862l5.188-1.878a16.228,16.228,0,0,0,6.009-3.2c1.639-1.6,2.529-4.2,1.476-6.231-1.036-2-3.6-2.784-5.834-2.475" transform="translate(-210.741 -181.347)" fill="#03382e"/>
    <path id="Path_155" data-name="Path 155" d="M238.56,219.725s9.065,2.99,18.194-.459l3.109.832-9.746,50.63L236.2,220.9Z" transform="translate(-208.666 -164.541)" fill="#fe9370"/>
    <path id="Path_156" data-name="Path 156" d="M251.351,219.266c-2.427,9.349-3.146,18.753-5.141,28.2a108.788,108.788,0,0,0-2.507,16.167c-.149,2.6-.13,5.2-.109,7.807l.22,27.931a2.823,2.823,0,0,0,.18,1.185c.4.845,1.471,1.074,2.4,1.19a145.734,145.734,0,0,0,20.326,1.112,1.25,1.25,0,0,0,1.516-1.472c.379-9.184-.442-18.376-.421-27.569a150.932,150.932,0,0,1,5.377-39.573c.348-1.272.7-2.683.1-3.856a5.021,5.021,0,0,0-1.6-1.634,56.869,56.869,0,0,0-18.74-9.1" transform="translate(-203.264 -164.541)" fill="#03382e"/>
    <path id="Path_157" data-name="Path 157" d="M245.926,219.655q-9.157,4.5-18.047,9.526a5.646,5.646,0,0,0-1.495,1.077c-1.355,1.512-.764,3.865-.156,5.8,6.422,20.475,5.926,42.359,7.04,63.789a1.977,1.977,0,0,0,.281,1.109,2.02,2.02,0,0,0,1.776.492q10.235-.543,20.47-1.133a1.922,1.922,0,0,0,.857-.182,1.951,1.951,0,0,0,.7-1.632,166.892,166.892,0,0,0-8.469-67.716,62.04,62.04,0,0,1-2.957-11.133" transform="translate(-216.457 -164.256)" fill="#03382e"/>
    <path id="Path_158" data-name="Path 158" d="M262.373,225.675c.762-.618,1.729.478,2.077,1.4,3.669,9.723,4.1,20.331,5.309,30.668a196.23,196.23,0,0,0,5.562,28.716c1.06,3.892,2.248,7.793,2.472,11.824a107.4,107.4,0,0,1-11.942.488,1.738,1.738,0,0,1-1.036-.237,1.8,1.8,0,0,1-.537-1.046,229.5,229.5,0,0,1-6.271-36.98c-1-11.54-.994-23.73,4.327-33.983" transform="translate(-193.073 -159.98)" fill="#03382e"/>
    <path id="Path_159" data-name="Path 159" d="M243.533,255.641c1.769.081,3.361-.984,4.805-2q3.622-2.552,7.241-5.1,1.143-.8,2.283-1.609c.366,2.177-1.493,4-2.619,5.9-.236.4-.426.956-.094,1.28a1,1,0,0,0,.565.225c2.3.355,4.54-.807,6.475-2.093s3.854-2.766,6.141-3.18q-1.491,1.92-2.981,3.839a.8.8,0,0,0-.236.566c.094.7,1.647.417,1.576,1.117a8.2,8.2,0,0,1-1.621,4.166,7.6,7.6,0,0,1-3.18,1.793,54.52,54.52,0,0,1-19.521,3.083" transform="translate(-204.152 -144.289)" fill="#ffd0bc"/>
    <path id="Path_160" data-name="Path 160" d="M232.536,226.77c3.494,6.11,4.466,13.368,4.31,20.406s-1.362,14.007-1.919,21.024a.929.929,0,0,0,1.06,1.22l14.658,1.065c4.194.3,8.505.6,12.521-.655q.79,4.313,1.578,8.627a2.487,2.487,0,0,1,.019,1.225c-.27.812-1.242,1.109-2.079,1.282-12.926,2.662-26.555,3.215-39.172-.662a3.924,3.924,0,0,1-1.635-.814,3.572,3.572,0,0,1-.825-1.6c-.963-3.305-.786-6.82-.6-10.258q.385-7.138.771-14.275a67.891,67.891,0,0,1,1.19-10.944,67.836,67.836,0,0,1,4.791-12.976,6.849,6.849,0,0,1,2.165-3.1c1.067-.705,2.777-.591,3.345.554" transform="translate(-220.306 -159.691)" fill="#03382e"/>
    <path id="Path_161" data-name="Path 161" d="M230.026,199.4l7.1,18.6,25.754-15.574L258.3,189.11Z" transform="translate(-213.188 -186.623)" fill="#022b23"/>
    <path id="Path_162" data-name="Path 162" d="M245.93,192.115l-24.05,14.86,27.635-4.331,27.749-14.969Z" transform="translate(-219.153 -187.674)" fill="#011c17"/>
    <g id="Group_4" data-name="Group 4" transform="translate(3.625 18.979)">
      <rect id="Rectangle_23" data-name="Rectangle 23" width="0.659" height="31.075" transform="translate(0 0.012) rotate(-1.012)" fill="#022b23"/>
    </g>
    <g id="Group_5" data-name="Group 5" transform="translate(3.052 49.137)">
      <path id="Path_163" data-name="Path 163" d="M223.5,216.04l-1.434,4.411,4.115-.207Z" transform="translate(-222.068 -216.04)" fill="#022b23"/>
    </g>
  </g>
  <g id="Group_8" data-name="Group 8" transform="translate(289.472 138.598)">
    <path id="Path_164" data-name="Path 164" d="M313.946,371.886c-.249-23.915-20.221-67.08-37.884-91.532a8.6,8.6,0,0,1-12.559-8.9L249,260.689a3.5,3.5,0,0,0-1.306-.707,4.557,4.557,0,0,0-2.03.282A7.836,7.836,0,0,1,236.72,249.2q-6.722-5.075-13.447-10.146a4.685,4.685,0,0,0-2.164-1.1c-1.121-.132-2.155.54-3.222.9a6.291,6.291,0,0,1-7.856-4.528,12.7,12.7,0,0,0-.646-3.328,6.2,6.2,0,0,0-1.493-1.725q-6.675-6.02-13.352-12.039c-2.546-2.3-5.509-4.743-8.926-4.48a3.786,3.786,0,0,0-2.659,1.192c-1.239,1.491-.528,3.724.234,5.505q5.054,11.8,10.109,23.6a3.449,3.449,0,0,0,.677,1.147,4.366,4.366,0,0,0,2.553.8,9.3,9.3,0,0,1,7.395,10.917,5.887,5.887,0,0,0-.35,2.624,4.4,4.4,0,0,0,.842,1.561l18.054,24.759a4.994,4.994,0,0,0,1.609,1.614c1.287.665,2.825.107,4.251-.152a9.98,9.98,0,0,1,10.981,13.73,5.481,5.481,0,0,0-.757,2.642,4.283,4.283,0,0,0,.977,1.968c18.774,25.476,44.956,53.986,73.446,67.764" transform="translate(-182.282 -212.735)" fill="#03756f"/>
    <g id="Group_7" data-name="Group 7" transform="translate(2.432 2.214)">
      <path id="Path_165" data-name="Path 165" d="M184.63,214.193c18.078,20.392,35.676,41.377,54.72,60.878,17.969,18.4,36.788,35.835,51.147,57.357,8.252,12.37,15.344,25.459,22.421,38.522a.554.554,0,0,1-.97.535c-6.257-11.547-12.521-23.11-19.594-34.184a224.666,224.666,0,0,0-24.307-31.421c-8.6-9.326-17.737-18.128-26.652-27.146-9.155-9.261-17.828-18.947-26.465-28.69l-31.1-35.083c-.473-.534.327-1.3.8-.767Z" transform="translate(-183.686 -214.013)" fill="#54a39b"/>
    </g>
  </g>
  <g id="Group_15" data-name="Group 15" transform="translate(369.01 166.418)">
    <path id="Path_166" data-name="Path 166" d="M239.59,388.556c8.6,5.7,24.724,4.935,35.716-.326a58.25,58.25,0,0,0,11.767-8.11c37.671-31.246,69.136-72.152,80.437-119.772,1.618-6.815,2.822-13.816,2.283-20.8-.232-3.009-.9-6.2-3.064-8.3-2.794-2.7-7.2-2.768-11.024-2.087-8.237,1.464-15.764,5.516-23,9.72A425.554,425.554,0,0,0,281.342,274c-6.165,4.913-12.2,10-17.861,15.486a199.669,199.669,0,0,0-17.5,19.452A95.454,95.454,0,0,0,234.906,325.6c-9.959,20.084-9.176,45.337,4.684,62.955" transform="translate(-228.198 -228.795)" fill="#017d70"/>
    <g id="Group_9" data-name="Group 9" transform="translate(11.151 27.347)">
      <path id="Path_167" data-name="Path 167" d="M234.715,376.2c11.551-18.637,23.139-37.328,36.707-54.589,13.759-17.506,29.847-33.166,45.179-49.274l26.263-27.59c.466-.49,1.244.217.776.707q-23.024,24.191-46.05,48.378c-7.6,7.984-15.218,15.94-22.19,24.487-7.1,8.7-13.655,17.837-19.9,27.167-6.858,10.239-13.352,20.716-19.845,31.189-.353.572-1.292.1-.935-.476Z" transform="translate(-234.635 -244.581)" fill="#54a39b"/>
    </g>
    <g id="Group_10" data-name="Group 10" transform="translate(30.448 102.604)">
      <path id="Path_168" data-name="Path 168" d="M246.259,314.443c23.519.272,44.71-12,62.521-26.306.527-.421,1.083.469.561.89-17.944,14.414-39.346,26.739-63.033,26.464-.676-.007-.726-1.057-.048-1.048Z" transform="translate(-245.775 -288.026)" fill="#54a39b"/>
    </g>
    <g id="Group_11" data-name="Group 11" transform="translate(54.439 54.122)">
      <path id="Path_169" data-name="Path 169" d="M259.986,302.492a122.51,122.51,0,0,0,65.5-42.267c.421-.528,1.194.182.774.708A123.456,123.456,0,0,1,260.3,303.495c-.651.166-.968-.837-.312-1Z" transform="translate(-259.624 -260.038)" fill="#54a39b"/>
    </g>
    <g id="Group_12" data-name="Group 12" transform="translate(71.119 32.254)">
      <path id="Path_170" data-name="Path 170" d="M269.279,293.137A123.054,123.054,0,0,1,294.7,247.589c.447-.506,1.223.2.776.708a121.755,121.755,0,0,0-25.168,45.059c-.2.643-1.225.426-1.027-.22Z" transform="translate(-269.254 -247.414)" fill="#54a39b"/>
    </g>
    <g id="Group_13" data-name="Group 13" transform="translate(43.214 56.983)">
      <path id="Path_171" data-name="Path 171" d="M253.147,314.988c1.867-19.708,12.157-37.082,23.16-53.054.379-.549,1.318-.078.935.476-10.955,15.9-21.208,33.174-23.068,52.8-.064.672-1.09.445-1.027-.22Z" transform="translate(-253.144 -261.69)" fill="#54a39b"/>
    </g>
    <g id="Group_14" data-name="Group 14" transform="translate(21.721 91.326)">
      <path id="Path_172" data-name="Path 172" d="M243.458,329.6c-2.581-.047-2.259-6.028-2.415-7.774a77.588,77.588,0,0,1-.017-13.591A78.705,78.705,0,0,1,248.1,281.8c.286-.613,1.22-.135.935.476A76.98,76.98,0,0,0,241.8,316.31c.024,1.28.232,12.212,1.616,12.238.672.012.724,1.062.047,1.048Z" transform="translate(-240.737 -281.516)" fill="#54a39b"/>
    </g>
  </g>
  <g id="Group_17" data-name="Group 17" transform="translate(98.242 25.459)">
    <path id="Path_173" data-name="Path 173" d="M194.294,367.427c23.748-21.726,35.054-56.213,28.778-87.782a56.194,56.194,0,0,1-18.738,12.114,56.526,56.526,0,0,1,.833-21.91c.745-3.127,1.765-6.3,1.342-9.484-.482-3.62-2.756-6.718-5-9.6A380.987,380.987,0,0,0,171.8,216.83c-1.559-1.582-3.6-3.283-5.737-2.669-2.323.669-3.03,3.529-3.61,5.878a32.969,32.969,0,0,1-9.735,16.342c-10.184-10.368-6.853-28.263-14.759-40.459-2.688-4.147-6.534-7.39-10.352-10.527q-21.405-17.6-44.06-33.6c-3.475-2.455-7.476-5-11.66-4.237a430.271,430.271,0,0,1,14.5,108.813c.012,2.959.023,6.04,1.334,8.691,1.261,2.555,3.577,4.4,5.822,6.151l28.695,22.45-19.722-2.631a3.232,3.232,0,0,0-2.385.3c-1,.752-.792,2.283-.478,3.5,6.148,23.793,13.818,49.782,34.437,63.149,17.319,11.227,39.475,10.614,60.088,9.609" transform="translate(-71.888 -147.422)" fill="#d7ecef"/>
    <g id="Group_16" data-name="Group 16" transform="translate(25.489 43.607)">
      <path id="Path_174" data-name="Path 174" d="M183.62,350.385c-10.281-31.794-28.769-60.251-45.543-88.894q-25.677-43.84-51.353-87.683c-.575-.98,1.025-1.732,1.6-.757Q114,216.893,139.675,260.734c16.775,28.643,35.264,57.1,45.543,88.894.345,1.067-1.249,1.838-1.6.757Z" transform="translate(-86.602 -172.595)" fill="#54a39b"/>
    </g>
  </g>
  <g id="Group_19" data-name="Group 19" transform="translate(21.05 214.948)" opacity="0.44">
    <path id="Path_175" data-name="Path 175" d="M194.739,378.036c-6.383-23.049-36.765-59.638-60.118-78.734a8.6,8.6,0,0,1-14.423-5.377l-16.779-6.681a3.514,3.514,0,0,0-1.445-.348,4.566,4.566,0,0,0-1.89.8,7.836,7.836,0,0,1-11.485-8.4L73,272.937a4.7,4.7,0,0,0-2.377-.508c-1.116.159-1.942,1.076-2.881,1.7a6.291,6.291,0,0,1-8.755-2.361,12.74,12.74,0,0,0-1.478-3.049,6.208,6.208,0,0,0-1.886-1.285l-16-8.207c-3.05-1.564-6.541-3.168-9.777-2.037a3.788,3.788,0,0,0-2.264,1.836c-.814,1.76.445,3.735,1.64,5.259l15.828,20.208a3.458,3.458,0,0,0,.949.935,4.364,4.364,0,0,0,2.675.118,9.3,9.3,0,0,1,9.95,8.653,5.871,5.871,0,0,0,.334,2.626,4.444,4.444,0,0,0,1.214,1.292q11.9,9.648,23.806,19.294a5,5,0,0,0,1.97,1.147c1.414.312,2.759-.62,4.069-1.239a9.981,9.981,0,0,1,14.139,10.451,5.46,5.46,0,0,0-.052,2.747,4.259,4.259,0,0,0,1.448,1.651c24.686,19.8,57.31,40.632,88.383,46.634" transform="translate(-27.326 -256.81)" fill="#03756f"/>
    <g id="Group_18" data-name="Group 18" transform="translate(2.351 2.571)">
      <path id="Path_176" data-name="Path 176" d="M29.511,258.389c22.706,15.067,45.1,30.829,68.516,44.787,22.09,13.169,44.755,25.189,64.159,42.3,11.152,9.836,21.366,20.666,31.56,31.473.49.52-.312,1.287-.8.767-9.013-9.553-18.035-19.121-27.714-28.009a224.746,224.746,0,0,0-31.562-24.125c-10.7-6.806-21.8-12.968-32.726-19.393-11.228-6.6-22.1-13.735-32.946-20.934l-39.064-25.92c-.594-.395-.019-1.342.577-.948Z" transform="translate(-28.684 -258.295)" fill="#54a39b"/>
    </g>
  </g>
  <g id="Group_20" data-name="Group 20" transform="translate(207.059 65.867)">
    <path id="Path_177" data-name="Path 177" d="M151.279,305.255q1.949,5.732,3.9,11.466a19.93,19.93,0,0,1,.483,15.649q-1.925,6.753-3.853,13.5c2.489-1.048,4.454-3.021,6.349-4.947l10.191-10.355c1.649-1.675,3.3-3.354,4.817-5.148a49.023,49.023,0,0,1-13.7-25.968" transform="translate(-122.57 -76.503)" fill="#ffd0bc"/>
    <path id="Path_178" data-name="Path 178" d="M154.6,303.053q-.509,5.306-1.349,10.575c-.475,2.976-1.1,6.092-3.052,8.388-.686.805-1.3,1.377-2.093,2.38-.566.71-2.129,1.549-2.673,2.276-.963,1.284-1.218,1.963-2.637,2.711a14.682,14.682,0,0,0-4.4,3.561c-.478.575-.852,1.566-.211,1.949a1.4,1.4,0,0,0,1.266-.144,70.676,70.676,0,0,1,25.033-6.281,3.346,3.346,0,0,0,1.925-.511c.925-.734.767-2.242.1-3.215a25.284,25.284,0,0,0-2.507-2.5c-2.6-2.831-2.24-7.2-1.711-11.012q.631-4.578,1.265-9.153" transform="translate(-132.404 -74.581)" fill="#ffd0bc"/>
    <path id="Path_179" data-name="Path 179" d="M145.606,227.691q-1.486,3.8-2.974,7.6a72.12,72.12,0,0,0-3.508,10.53c-3.1,13.919,2.2,28.12,5.808,41.912,6.236,23.831,7.52,48.635,8.772,73.233q3.591-.7,7.182-1.407a2.317,2.317,0,0,0,2.366-2.643q1.3-18,2.6-36c.464-6.428.928-12.86.994-19.3.061-6.013-.225-12.022-.213-18.035.017-7.211,4.294-43.674,5.171-50.833" transform="translate(-132.155 -129.052)" fill="#03725d"/>
    <path id="Path_180" data-name="Path 180" d="M183.428,228.984c5.746,13.662,3.477,29.516-1.961,43.3s-13.806,26.192-20.624,39.352c-1.3,2.513-2.574,5.141-2.756,7.967-.2,3.03,2.494,7.513,3.513,10.373,2.789,7.826,3.7,14.213,5.955,22.209a2.874,2.874,0,0,1-1.441,3.969l-6.692,4.661c-3.962-7.821-6.7-15.67-10.435-23.6C147,333,143.3,323.709,142.382,319.131c-1.488-7.4.464-10.073,1.93-17.473,2.538-12.815,5.436-25.639,10.423-37.713a69.832,69.832,0,0,0,2.74-7.154c1.207-4.187,1.372-8.594,1.528-12.949q.244-6.758.485-13.517" transform="translate(-129.475 -128.105)" fill="#02806b"/>
    <path id="Path_181" data-name="Path 181" d="M151.084,193.694a6.281,6.281,0,0,1-4.357,9.179,7.909,7.909,0,0,0,3.892,4.769,14.925,14.925,0,0,0,6.053,1.67,12.87,12.87,0,0,0,3.452-.074c3.733-.683,6.589-3.82,8.227-7.244a28.337,28.337,0,0,1-3.191-1.438,3.177,3.177,0,0,1-1.076-.79,3.079,3.079,0,0,1-.508-1.472,17.313,17.313,0,0,1,2.888-12.249" transform="translate(-125.904 -159.548)" fill="#f4c7b8"/>
    <path id="Path_182" data-name="Path 182" d="M149.7,175.226c-2.24,1.869-2.908,4.977-3.44,7.844-.868,4.67-1.732,9.508-.606,14.123a30.242,30.242,0,0,0,1.7,4.734c.807,1.876,1.928,3.965,3.929,4.372a6.023,6.023,0,0,0,3.769-.854,35.972,35.972,0,0,0,7.858-5.3,20.478,20.478,0,0,1,2.425-1.994,29.388,29.388,0,0,0,2.966-1.77,5.213,5.213,0,0,0,1.864-3.693c.052-1-.494-2.259-1.495-2.195-.7.045-1.343.757-2,.5a12.828,12.828,0,0,0-3.906-16.8c-1.886-1.3-4.393-2.08-6.473-1.117" transform="translate(-127.079 -169.359)" fill="#ffd0bc"/>
    <path id="Path_183" data-name="Path 183" d="M155.686,176.516c-.09,3.546,2.628,5.484,5.07,8.057s5.1,5.389,5.367,8.925a3.381,3.381,0,0,1,2.216-.828c1.495.194,1.982,2.28,1.325,3.636s-1.97,2.255-2.936,3.411a7.886,7.886,0,0,0-1.8,4.438,3.007,3.007,0,0,0,.114,1.23,2.787,2.787,0,0,0,2.056,1.578,8.794,8.794,0,0,0,5.649-.979,25.8,25.8,0,0,1,5.384-2.231c.941-.194,1.912-.232,2.839-.485a6.11,6.11,0,0,0,4.27-4.325,7.639,7.639,0,0,0-.192-3.882,11.316,11.316,0,0,0-2.247-4.178,22.4,22.4,0,0,1-1.585-1.859c-1.315-1.937-1.292-4.443-1.783-6.732a14.771,14.771,0,0,0-7.27-9.737c-3.667-2-7.374-1.959-11.54-1.644a30.327,30.327,0,0,0-4.469,1.072,33.969,33.969,0,0,0-3.319,1.148c-4.353,1.805-7.961,5.808-8.192,10.515-.1,2.093.476,4.168.471,6.264a34.864,34.864,0,0,1-.821,5.715,11.062,11.062,0,0,0,.211,5.71,4.872,4.872,0,0,0,4.279,3.342c-1.753-3.846-3.12-8.523-2.075-12.853.26-1.083.629-2.139.823-3.234a16.964,16.964,0,0,1,1.069-3.264c1.294-3.584,5.81-5.216,7.083-8.808" transform="translate(-127.88 -170.748)" fill="#03382e"/>
    <path id="Path_184" data-name="Path 184" d="M173.257,203.1a383,383,0,0,1,5.282,42.073,19.666,19.666,0,0,1-.128,5.358,6.879,6.879,0,0,1-2.761,4.45c-2.436,1.583-5.6.819-8.27-.509a1.587,1.587,0,0,1-.847-1.84,22.447,22.447,0,0,1,2.434-4.752c1.1-1.923,1.935-4.315.953-6.3-.663-1.342-2.073-2.274-2.468-3.717a5.922,5.922,0,0,1-.073-2.025q.366-4.628.734-9.255" transform="translate(-111.443 -147.062)" fill="#fe9370"/>
    <path id="Path_185" data-name="Path 185" d="M138.806,203.479a49.715,49.715,0,0,0-2.091,9.009c-1.628,9.747-3.245,19.758-.631,29.351a10.524,10.524,0,0,0,2.126,4.412,6.068,6.068,0,0,0,4.873,2.046,5.651,5.651,0,0,0,4.481-3.236,8.5,8.5,0,0,1-5.472-2.465c-2.974-3.128-2.025-7.743-.211-11.449s4.395-7.362,4.26-11.37" transform="translate(-134.706 -146.781)" fill="#fe9370"/>
    <path id="Path_186" data-name="Path 186" d="M142.43,215.926a18.246,18.246,0,0,0,1.53-6.134,36.5,36.5,0,0,0-.36-3.825c-.6-6.385,2.174-12.548,4.882-18.362a.7.7,0,0,1,.253-.338c.471-.268.726.591.6,1.117a41.393,41.393,0,0,0-.993,6.434,1.941,1.941,0,0,0,.114,1.031c.315.622,1.135.724,1.8.916s1.4.854,1.074,1.471c1.455.217,3.16.639,3.686,2.013a4.253,4.253,0,0,1-.208,2.718,13.015,13.015,0,0,1-2.1,4.625,19.77,19.77,0,0,0-1.886,2.172,7.625,7.625,0,0,0-.844,3.134q-.437,3.838-.6,7.7" transform="translate(-129.05 -158.689)" fill="#f4c7b8"/>
    <path id="Path_187" data-name="Path 187" d="M141.149,212.231a55.27,55.27,0,0,1,1.157,31.8,2.888,2.888,0,0,0-.12,1.569c.315,1.019,1.588,1.317,2.647,1.445q6.317.772,12.633,1.54a19.82,19.82,0,0,0,4.48.206c2.567-.268,4.951-1.526,7.518-1.8,5.093-.551,10.636,2.727,15.1.22,3.324-1.866,4.39-6.233,4-10.025s-1.879-7.4-2.288-11.192c-.7-6.546,1.614-14.061-2.508-19.2" transform="translate(-129.988 -144.353)" fill="#fe9370"/>
    <path id="Path_188" data-name="Path 188" d="M153.932,247.914c-1.727-2.177-2.027-5.171-1.772-7.939s.986-5.488,1.05-8.266c.068-3-.644-5.952-1.013-8.928a39.225,39.225,0,0,1,.98-14.707" transform="translate(-122.114 -143.417)" fill="none" stroke="#222221" stroke-miterlimit="10" stroke-width="0.25"/>
    <path id="Path_189" data-name="Path 189" d="M139.966,240.582c-2.257-1.992-2.931-5.732-2.749-8.737a29.923,29.923,0,0,1,2.333-8.687q2.383-6.273,4.767-12.543a7.428,7.428,0,0,0,3.8,1.214,3.96,3.96,0,0,1,2.512.508,3.11,3.11,0,0,1,.695,2.538q-.182,5.748-.825,11.468c-.435,3.873-1.065,7.842-3.064,11.187a8.1,8.1,0,0,1-3.142,3.2,4.254,4.254,0,0,1-4.322-.149" transform="translate(-132.888 -141.557)" fill="#ffd0bc"/>
    <path id="Path_190" data-name="Path 190" d="M139.149,194.63l24.917.686a2.09,2.09,0,0,1,2.032,2.022l1.351,41.342a2.091,2.091,0,0,1-2.167,2.158l-26.268-.961A2.092,2.092,0,0,1,137,237.788V196.721A2.092,2.092,0,0,1,139.149,194.63Z" transform="translate(-133.027 -153.261)" fill="#3a4d57"/>
    <path id="Path_191" data-name="Path 191" d="M181.57,194.63l-24.917.686a2.091,2.091,0,0,0-2.034,2.022l-1.351,41.342a2.092,2.092,0,0,0,2.167,2.158l26.268-.961a2.092,2.092,0,0,0,2.016-2.089V196.721A2.092,2.092,0,0,0,181.57,194.63Z" transform="translate(-121.114 -153.261)" fill="#3a4d57"/>
    <rect id="Rectangle_24" data-name="Rectangle 24" width="5.501" height="45.683" rx="0.337" transform="translate(30.837 41.976)" fill="#03382e"/>
    <path id="Path_192" data-name="Path 192" d="M180.043,254.907c-8.273-5.526-12.786-15.306-17.5-24.07-1.143-2.127-2.219-4.3-3.553-6.311-3.068-4.636-7.539-8.549-9-13.913a1.935,1.935,0,0,1,1.246.324q-.27-1.226-.539-2.449a7.079,7.079,0,0,0,1.945.773q-.4-1.7-.788-3.394a5.6,5.6,0,0,1,3.087,2.6c-.8-1.912-1.608-4.014-1.017-6a43.253,43.253,0,0,1,7.757,10.56c.485.927,1.415,2.044,2.333,1.545a2.1,2.1,0,0,0,.79-1.209,14.239,14.239,0,0,1,2.7-4.459,34.609,34.609,0,0,1-1.119,10.766,7.271,7.271,0,0,0-.405,2.927c.237,1.549,1.512,2.694,2.675,3.745,5.2,4.7,10.283,10.193,13.78,16.262,0,0,.691,1.6,0,6.676S180.9,255.482,180.043,254.907Z" transform="translate(-123.511 -147.522)" fill="#ffd0bc"/>
  </g>
  <g id="Group_21" data-name="Group 21" transform="translate(505.126 58.783)">
    <path id="Path_193" data-name="Path 193" d="M345.376,289.555l-2.88,15.623-34.5-6.336.18-1.008,2.7-14.634,11.5,2.124,11.5,2.106Z" transform="translate(-305.885 -81.32)" fill="#ff7131"/>
    <path id="Path_194" data-name="Path 194" d="M343.386,298.566l-1.819,9.9a17.541,17.541,0,0,1-34.792-3.149,17.733,17.733,0,0,1,.288-3.2l1.819-9.881Z" transform="translate(-306.775 -74.708)" fill="#fe9370"/>
    <path id="Path_195" data-name="Path 195" d="M345.417,166.659l3.708,17.153-13.265-2.448Z" transform="translate(-285.478 -166.659)" fill="#3a4d57"/>
    <path id="Path_196" data-name="Path 196" d="M355.6,177.6l5.94,27.467-11.52-2.106-11.5-2.124-11.5-2.106,15.317-23.579Z" transform="translate(-291.953 -160.443)" fill="#ddd"/>
    <path id="Path_197" data-name="Path 197" d="M351.232,190.866,321.155,354.48l-11.5-2.124,30.077-163.6Z" transform="translate(-304.667 -150.475)" fill="#fb8860"/>
    <path id="Path_198" data-name="Path 198" d="M346.37,189.976l11.5,2.124L327.795,355.7l-11.5-2.106Z" transform="translate(-299.805 -149.585)" fill="#ff7131"/>
    <path id="Path_199" data-name="Path 199" d="M364.529,193.308l-30.1,163.614-11.5-2.124L353.01,191.2Z" transform="translate(-294.943 -148.687)" fill="#fe9370"/>
  </g>
  <g id="Group_22" data-name="Group 22" transform="translate(457.663 150.689)">
    <path id="Path_200" data-name="Path 200" d="M323.442,288.335l3.858,9.384-20.716,8.533-.252-.6-3.612-8.79,6.909-2.838,6.9-2.847Z" transform="translate(-262.282 -169.467)" fill="#ff7131"/>
    <path id="Path_201" data-name="Path 201" d="M325.666,293.752l2.448,5.945a11.2,11.2,0,0,1-19.768,10.342,11.4,11.4,0,0,1-.954-1.819l-2.441-5.935Z" transform="translate(-260.648 -165.5)" fill="#fe9370"/>
    <path id="Path_202" data-name="Path 202" d="M279.461,219.715l7.924,7.927-7.969,3.274Z" transform="translate(-279.346 -219.715)" fill="#3a4d57"/>
    <path id="Path_203" data-name="Path 203" d="M287.413,224.291,300.1,236.983l-6.913,2.854-6.909,2.838-6.9,2.847.068-17.957Z" transform="translate(-279.374 -216.364)" fill="#ddd"/>
    <rect id="Rectangle_25" data-name="Rectangle 25" width="7.469" height="106.236" transform="translate(0 29.156) rotate(-22.375)" fill="#fb8860"/>
    <rect id="Rectangle_26" data-name="Rectangle 26" width="7.469" height="106.236" transform="matrix(0.925, -0.38, 0.38, 0.925, 6.945, 26.294)" fill="#ff7131"/>
    <rect id="Rectangle_27" data-name="Rectangle 27" width="7.474" height="106.237" transform="translate(13.817 23.467) rotate(-22.368)" fill="#fe9370"/>
  </g>
  <g id="Group_24" data-name="Group 24" transform="translate(609.987 100.196)">
    <path id="Path_204" data-name="Path 204" d="M391.053,361.9a74.73,74.73,0,0,1-22.412-68.362,43.76,43.76,0,0,0,14.591,9.434,43.981,43.981,0,0,0-.648-17.063c-.579-2.434-1.375-4.906-1.045-7.386.374-2.82,2.146-5.231,3.889-7.478a296.765,296.765,0,0,1,23.141-26.426c1.214-1.232,2.806-2.557,4.467-2.079,1.81.521,2.359,2.749,2.811,4.577a25.683,25.683,0,0,0,7.58,12.727c7.932-8.072,5.339-22.01,11.5-31.506,2.093-3.231,5.088-5.755,8.062-8.2q16.669-13.706,34.312-26.166c2.706-1.911,5.82-3.894,9.081-3.3a334.964,334.964,0,0,0-11.294,84.74c-.01,2.3-.017,4.7-1.039,6.77a14.941,14.941,0,0,1-4.533,4.79l-22.348,17.482,15.358-2.048a2.52,2.52,0,0,1,1.859.232c.78.585.615,1.779.372,2.723-4.788,18.528-10.761,38.768-26.819,49.179-13.487,8.743-30.741,8.265-46.8,7.483" transform="translate(-367.309 -190.566)" fill="#d7ecef"/>
    <g id="Group_23" data-name="Group 23" transform="translate(22.382 33.961)">
      <path id="Path_205" data-name="Path 205" d="M381.512,348.627c8.006-24.759,22.4-46.922,35.468-69.228q20-34.14,39.991-68.284c.449-.764-.8-1.349-1.244-.589q-19.995,34.14-39.991,68.284c-13.063,22.306-27.461,44.467-35.468,69.228-.269.832.972,1.431,1.244.589Z" transform="translate(-380.23 -210.171)" fill="#54a39b"/>
    </g>
  </g>
  <g id="Group_31" data-name="Group 31" transform="translate(580.568 81.722)" opacity="0.52">
    <path id="Path_206" data-name="Path 206" d="M382.572,381.8c-10.193-1.6-21.584-13.03-26.152-24.326a58.308,58.308,0,0,1-3.22-13.924c-6.744-48.477-2.39-99.9,21.378-142.684,3.4-6.122,7.234-12.1,12.341-16.9,2.2-2.065,4.845-3.977,7.863-4.064,3.885-.113,7.18,2.81,9.548,5.893,5.095,6.636,7.918,14.7,10.425,22.686A425.431,425.431,0,0,1,429,269.057c1.239,7.785,2.261,15.613,2.746,23.481a200.139,200.139,0,0,1-.194,26.166,95.442,95.442,0,0,1-3.063,19.77c-6.189,21.546-23.8,39.663-45.913,43.327" transform="translate(-350.327 -179.901)" fill="#017d70"/>
    <g id="Group_25" data-name="Group 25" transform="translate(31.879 30.915)">
      <path id="Path_207" data-name="Path 207" d="M369.752,368.252c4.04-21.551,8.088-43.166,9.709-65.062,1.646-22.206.327-44.618-.132-66.851q-.392-19.041-.785-38.084a.526.526,0,0,0-1.051,0q.691,33.389,1.379,66.777c.227,11.021.487,22.033-.128,33.045-.625,11.215-1.945,22.381-3.624,33.484-1.841,12.185-4.111,24.3-6.38,36.412-.125.66.887.944,1.012.279Z" transform="translate(-368.73 -197.748)" fill="#54a39b"/>
    </g>
    <g id="Group_26" data-name="Group 26" transform="translate(9.102 104.057)">
      <path id="Path_208" data-name="Path 208" d="M385.028,301.937C367.477,286.279,360.1,262.93,356.6,240.352c-.1-.667-1.116-.383-1.013.279,3.529,22.745,11.021,46.279,28.7,62.049.5.449,1.249-.293.743-.743Z" transform="translate(-355.581 -239.971)" fill="#54a39b"/>
    </g>
    <g id="Group_27" data-name="Group 27" transform="translate(21.617 50.082)">
      <path id="Path_209" data-name="Path 209" d="M383.992,284.7a122.5,122.5,0,0,1-19.862-75.383c.045-.674-1-.672-1.05,0a123.458,123.458,0,0,0,20,75.913c.371.563,1.282.036.908-.53Z" transform="translate(-362.805 -208.813)" fill="#54a39b"/>
    </g>
    <g id="Group_28" data-name="Group 28" transform="translate(42.316 49.933)">
      <path id="Path_210" data-name="Path 210" d="M375.719,260.007a123.054,123.054,0,0,0,11.946-50.774.526.526,0,0,0-1.051,0,121.76,121.76,0,0,1-11.8,50.244c-.289.608.617,1.142.908.53Z" transform="translate(-374.754 -208.727)" fill="#54a39b"/>
    </g>
    <g id="Group_29" data-name="Group 29" transform="translate(41.105 88.448)">
      <path id="Path_211" data-name="Path 211" d="M375.064,286.412c11.911-15.81,16.032-35.579,18.677-54.791.092-.662-.92-.948-1.012-.281-2.635,19.131-6.712,38.8-18.572,54.544-.407.539.5,1.064.906.528Z" transform="translate(-374.056 -230.961)" fill="#54a39b"/>
    </g>
    <g id="Group_30" data-name="Group 30" transform="translate(36.164 138.998)">
      <path id="Path_212" data-name="Path 212" d="M371.374,299.213c1.938,1.706,5.734-2.929,7.026-4.112a77.647,77.647,0,0,0,9.177-10.023,78.726,78.726,0,0,0,12.6-24.29c.2-.646-.811-.923-1.013-.279a76.969,76.969,0,0,1-17.6,30.015c-.88.928-8.407,8.86-9.444,7.948-.506-.445-1.252.294-.743.741Z" transform="translate(-371.204 -260.143)" fill="#54a39b"/>
    </g>
  </g>
  <g id="Group_33" data-name="Group 33" transform="translate(640.061 214.948)" opacity="0.44">
    <path id="Path_213" data-name="Path 213" d="M384.759,378.036c6.383-23.049,36.767-59.638,60.118-78.734a8.6,8.6,0,0,0,14.423-5.377l16.78-6.681a3.5,3.5,0,0,1,1.443-.348,4.557,4.557,0,0,1,1.89.8,7.837,7.837,0,0,0,11.487-8.4q7.8-3.175,15.6-6.352a4.692,4.692,0,0,1,2.375-.508c1.117.159,1.942,1.076,2.881,1.7a6.291,6.291,0,0,0,8.755-2.361,12.744,12.744,0,0,1,1.479-3.049,6.208,6.208,0,0,1,1.886-1.285q8-4.1,16-8.207c3.05-1.564,6.543-3.168,9.779-2.037a3.78,3.78,0,0,1,2.262,1.836c.814,1.76-.445,3.735-1.64,5.259q-7.912,10.105-15.828,20.208a3.458,3.458,0,0,1-.949.935,4.359,4.359,0,0,1-2.673.118,9.306,9.306,0,0,0-9.952,8.653,5.872,5.872,0,0,1-.334,2.626,4.42,4.42,0,0,1-1.214,1.292q-11.9,9.648-23.8,19.294a5,5,0,0,1-1.97,1.147c-1.415.312-2.76-.62-4.071-1.239a9.979,9.979,0,0,0-14.137,10.451,5.479,5.479,0,0,1,.052,2.747,4.272,4.272,0,0,1-1.448,1.651c-24.688,19.8-57.31,40.632-88.383,46.634" transform="translate(-384.606 -256.81)" fill="#03756f"/>
    <g id="Group_32" data-name="Group 32" transform="translate(0 2.571)">
      <path id="Path_214" data-name="Path 214" d="M549.061,258.389c-22.706,15.067-45.1,30.829-68.516,44.787-22.091,13.169-44.756,25.189-64.159,42.3-11.152,9.836-21.367,20.666-31.562,31.473-.49.52.312,1.287.8.767,9.011-9.553,18.035-19.121,27.713-28.009A224.747,224.747,0,0,1,444.9,325.583c10.7-6.806,21.8-12.968,32.728-19.393,11.227-6.6,22.095-13.735,32.944-20.934q19.534-12.958,39.066-25.92c.594-.395.019-1.342-.577-.948Z" transform="translate(-384.671 -258.295)" fill="#54a39b"/>
    </g>
  </g>
  <g id="Group_34" data-name="Group 34" transform="translate(652.321 164.9)">
    <path id="Path_215" data-name="Path 215" d="M445.235,262.99c-1.659-1.514-2.235-3.891-2.319-6.136-.322-8.36,4.843-15.864,10.161-22.322,2.138-2.595,4.483-5.242,7.646-6.378a2.6,2.6,0,0,1,1.583-.172c1.306.385,1.438,2.167,1.24,3.513-1.795,12.313-7.745,24.925-18.312,31.494" transform="translate(-354.291 -227.919)" fill="#d7ecef"/>
    <path id="Path_216" data-name="Path 216" d="M459.89,248.44a35.449,35.449,0,0,1,9.285-8.322,54.2,54.2,0,0,1,5.212-2.777c6.811-3.25,14.717-5.865,21.776-3.194a4.5,4.5,0,0,1,2.4,1.7,3.459,3.459,0,0,1-.2,3.454,8.745,8.745,0,0,1-2.6,2.5c-9.893,6.952-24.252,9.974-35.873,6.635" transform="translate(-341.85 -224.166)" fill="#d7ecef"/>
    <path id="Path_217" data-name="Path 217" d="M424.215,264.713c12.063-4.433,26.131-9.652,38.879-8.027a18.579,18.579,0,0,1,6.887,2.016,8.783,8.783,0,0,1,4.381,5.477c.806,3.6-1.422,7.253-4.26,9.612A23.92,23.92,0,0,1,457,278.87a45.177,45.177,0,0,1-14.147-1.254,29.3,29.3,0,0,1-6.416-2.079,34.544,34.544,0,0,1-12.225-10.825" transform="translate(-367.974 -207.076)" fill="#d7ecef"/>
    <path id="Path_218" data-name="Path 218" d="M416.277,287.038a64.132,64.132,0,0,1-6.084-11.925,21.545,21.545,0,0,1-.709-13.172,22.58,22.58,0,0,1,5.59-8.873,11.093,11.093,0,0,1,4.258-3.051,4.686,4.686,0,0,1,4.9.972,5.86,5.86,0,0,1,1.152,2.249c2.067,6.616-.1,13.758-2.617,20.217-1.72,4.412-3.179,9.853-6.238,13.468" transform="translate(-379.297 -211.948)" fill="#d7ecef"/>
    <path id="Path_219" data-name="Path 219" d="M401.677,288.71a45.882,45.882,0,0,1,26.784-9.094c3.281-.036,6.825.391,9.243,2.611a8.975,8.975,0,0,1,1.81,9.953,12.535,12.535,0,0,1-8.012,6.707,21.192,21.192,0,0,1-10.672.052c-7.038-1.58-14.582-4.651-19.154-10.229" transform="translate(-384.477 -190.065)" fill="#d7ecef"/>
    <path id="Path_220" data-name="Path 220" d="M537.53,237.358q-13.239,4.794-26.647,9.1a143.19,143.19,0,0,0-27.242,9.969q5.088-10.739,10.792-21.166a.518.518,0,0,0-.9-.509q-6.047,11.028-11.39,22.412c-19.746,9.813-37.3,23.806-52.624,39.877a125.309,125.309,0,0,1,3.329-26.252.518.518,0,0,0-1-.253,126.341,126.341,0,0,0-3.38,27.224.467.467,0,0,0,.092.288c-5.276,5.6-10.283,11.44-15.019,17.439-7.774,9.844-14.929,20.162-21.705,30.715-.36.561.542,1.069.9.509,5.3-8.249,10.887-16.4,16.825-24.293,4.521,1.538,9.323,1.4,14.045,1.464,5.058.069,10.317.566,15.3-.5.653-.14.372-1.138-.277-1-4.873,1.041-10.085.527-15.036.459-4.492-.062-9.051.059-13.368-1.306,11.2-14.787,23.64-28.65,37.732-40.533a.44.44,0,0,0,.267.144,162.87,162.87,0,0,0,39.747,1.592c.662-.055.653-1.091-.014-1.036a161.8,161.8,0,0,1-39.045-1.495,173.157,173.157,0,0,1,32.028-21.326c.567-.289,1.14-.561,1.708-.844a.392.392,0,0,0,.246-.121,143.861,143.861,0,0,1,27.28-10.2.5.5,0,0,0,.246-.014c.246-.08.489-.165.733-.242.291-.074.58-.158.873-.229a.481.481,0,0,0,.236-.139q12.849-4.152,25.551-8.736C538.43,238.131,538.158,237.131,537.53,237.358Z" transform="translate(-391.748 -223.106)" fill="#54a39b"/>
  </g>
  <g id="Group_35" data-name="Group 35" transform="translate(0 128.616)">
    <path id="Path_221" data-name="Path 221" d="M61.131,242.044c1.66-1.514,2.233-3.891,2.319-6.136.32-8.362-4.843-15.864-10.163-22.322-2.136-2.595-4.481-5.242-7.646-6.378a2.6,2.6,0,0,0-1.583-.172c-1.3.385-1.436,2.167-1.24,3.513,1.795,12.311,7.747,24.925,18.313,31.494" transform="translate(5.014 -206.973)" fill="#d7ecef"/>
    <path id="Path_222" data-name="Path 222" d="M54.224,227.494a35.45,35.45,0,0,0-9.285-8.322,54.412,54.412,0,0,0-5.214-2.779c-6.811-3.248-14.717-5.864-21.774-3.193a4.5,4.5,0,0,0-2.4,1.7,3.447,3.447,0,0,0,.2,3.452,8.709,8.709,0,0,0,2.6,2.5c9.893,6.952,24.252,9.974,35.873,6.634" transform="translate(-15.175 -203.22)" fill="#d7ecef"/>
    <path id="Path_223" data-name="Path 223" d="M94.66,243.767c-12.063-4.435-26.131-9.652-38.88-8.027a18.612,18.612,0,0,0-6.886,2.015,8.785,8.785,0,0,0-4.381,5.479c-.806,3.6,1.422,7.253,4.258,9.612a23.929,23.929,0,0,0,13.1,5.079A45.187,45.187,0,0,0,76.02,256.67a29.287,29.287,0,0,0,6.415-2.079A34.534,34.534,0,0,0,94.66,243.767" transform="translate(6.187 -186.131)" fill="#d7ecef"/>
    <path id="Path_224" data-name="Path 224" d="M88.712,266.092A64.238,64.238,0,0,0,94.8,254.167a21.558,21.558,0,0,0,.708-13.172,22.6,22.6,0,0,0-5.59-8.873,11.086,11.086,0,0,0-4.26-3.051,4.683,4.683,0,0,0-4.9.972,5.86,5.86,0,0,0-1.152,2.249c-2.068,6.615.1,13.758,2.617,20.217,1.72,4.412,3.177,9.853,6.236,13.468" transform="translate(31.396 -191.002)" fill="#d7ecef"/>
    <path id="Path_225" data-name="Path 225" d="M112.242,267.764A45.872,45.872,0,0,0,85.46,258.67c-3.281-.036-6.827.391-9.243,2.611a8.973,8.973,0,0,0-1.81,9.953,12.535,12.535,0,0,0,8.012,6.707,21.186,21.186,0,0,0,10.671.052c7.038-1.58,14.582-4.651,19.154-10.229" transform="translate(27.645 -169.119)" fill="#d7ecef"/>
    <path id="Path_226" data-name="Path 226" d="M21.969,216.412q13.239,4.794,26.647,9.1a143.272,143.272,0,0,1,27.241,9.969Q70.77,224.74,65.064,214.313a.518.518,0,0,1,.9-.509q6.044,11.028,11.388,22.412c19.748,9.811,37.306,23.806,52.624,39.876a125.066,125.066,0,0,0-3.329-26.252.519.519,0,0,1,1.006-.253,126.552,126.552,0,0,1,3.38,27.224.458.458,0,0,1-.094.288c5.276,5.6,10.284,11.44,15.02,17.439,7.774,9.844,14.929,20.16,21.705,30.715.36.561-.544,1.069-.9.509-5.3-8.251-10.889-16.4-16.827-24.293-4.519,1.538-9.323,1.4-14.043,1.464-5.058.069-10.317.566-15.3-.5-.655-.139-.374-1.136.277-1,4.871,1.041,10.083.527,15.034.459,4.492-.062,9.053.059,13.37-1.306-11.2-14.787-23.642-28.65-37.734-40.533a.44.44,0,0,1-.265.144,162.886,162.886,0,0,1-39.748,1.592c-.66-.055-.651-1.091.016-1.036a161.718,161.718,0,0,0,39.045-1.5,173.29,173.29,0,0,0-32.028-21.324c-.566-.289-1.14-.561-1.708-.844a.4.4,0,0,1-.248-.121,143.682,143.682,0,0,0-27.278-10.2.512.512,0,0,1-.248-.014c-.244-.08-.487-.165-.731-.242-.293-.074-.582-.158-.875-.229a.468.468,0,0,1-.234-.139q-12.849-4.152-25.553-8.736C21.066,217.185,21.34,216.185,21.969,216.412Z" transform="translate(-10.662 -202.16)" fill="#54a39b"/>
  </g>
  <g id="Group_36" data-name="Group 36" transform="translate(146.542 176.415)">
    <path id="Path_227" data-name="Path 227" d="M613.476,346.329s-17.314-14.272-32.954-26.031a13.369,13.369,0,0,1-2.687,1.107L604,341.591H110.018l28.192-21.747a14.692,14.692,0,0,1-1.159-2.19c-16.443,12.136-36.506,28.674-36.506,28.674l232.808,5.885c4.071,5.562,11.033,11.228,22.573,11.228a31.2,31.2,0,0,0,24.123-11.213Z" transform="translate(-99.204 -173.724)" fill="#03382e"/>
    <path id="Path_228" data-name="Path 228" d="M379.283,343.158h220.93l-15.2-13.2L423.876,315.516,374.262,330.16l-39.717-1.538h0L263.4,318.65l-140.85,10.742-16.831,13.766H327.41c4.675,3.366,14.423,9.132,26.412,9.132S374.961,346.523,379.283,343.158Z" transform="translate(-95.413 -175.29)" fill="#fe9370"/>
    <path id="Path_229" data-name="Path 229" d="M483.265,357.69a184.093,184.093,0,0,0-38.6,1.4c35.546-7.513,71.121-10.305,90.561-11.559,39.234-2.536,64.532-13.046,64.532-13.046-28.52,2.959-54.549-1.2-135.152,9.969-54.384,7.537-88.012,30.285-104.154,44.294,34.044-43.729,127.385-70.425,163.532-80.028,38-10.1,60.774-25.317,60.774-25.317-27.4,8.434-53.747,9.408-130.65,36-46.92,16.226-74.773,41.361-89.377,58.505C395.4,337.944,459,302.219,485.9,287.725c32.53-17.532,50.156-36.313,50.156-36.313-23.226,13.683-47.01,20.4-111.592,61.434-37.547,23.86-57.67,51.188-67.956,69.9,13.642-42.4,65.639-89.338,86.947-107.842,24.106-20.938,34.95-40.339,34.95-40.339-16.933,15.961-36.017,25.97-82.384,72.947-25.648,25.986-36.828,51.923-41.711,69.928-4.882-18.005-16.063-43.942-41.709-69.928-46.367-46.977-65.452-56.986-82.384-72.947,0,0,10.844,19.4,34.948,40.339,21.31,18.5,73.307,65.441,86.949,107.842-10.286-18.712-30.411-46.04-67.956-69.9-64.582-41.039-88.368-47.751-111.594-61.434,0,0,17.627,18.781,50.157,36.313,26.9,14.494,90.5,50.218,121.166,90.186-14.6-17.144-42.458-42.279-89.377-58.505-76.905-26.594-103.246-27.567-130.65-36,0,0,22.777,15.218,60.774,25.317,36.145,9.6,129.488,36.3,163.532,80.028-16.141-14.009-49.769-36.757-104.154-44.294-80.6-11.168-106.634-7.01-135.154-9.969,0,0,25.3,10.51,64.532,13.046,19.441,1.254,55.016,4.047,90.562,11.559a184.1,184.1,0,0,0-38.6-1.4c-81.179,5.6-97.055,27.889-125.575,30.843,0,0,26.916,5.1,65.834-.466,37.477-5.365,130.092-7.745,182.956,11.772-.068.184,11.558.184,11.488,0C412.914,380.321,505.529,382.7,543,388.066c38.92,5.564,65.836.466,65.836.466C580.32,385.579,564.445,363.29,483.265,357.69Zm-98.027,20.236a190.179,190.179,0,0,0-21.007,12.4A124.1,124.1,0,0,1,385.238,377.926Zm-40.859,12.4a190.24,190.24,0,0,0-21.005-12.4A124.081,124.081,0,0,1,344.379,390.323Z" transform="translate(-99.771 -234.566)" fill="#ddd"/>
  </g>
  <g id="Group_66" data-name="Group 66" transform="translate(561.832 173.579)">
    <path id="Path_230" data-name="Path 230" d="M388.864,292.428a26.936,26.936,0,0,0,7.182-.724c2.924-.7,5.865-1.9,8.836-1.433a16.216,16.216,0,0,1,5.843,2.628c1.815,1.126,3.759,2.411,4.422,4.442a.834.834,0,0,1,0,.693c-.21.34-.719.262-1.095.13-1.987-.693-3.859-1.7-5.871-2.319a8.7,8.7,0,0,0-6.17.05c-1.724.8-2.955,2.384-4.591,3.348a7.472,7.472,0,0,1-7.885-.3" transform="translate(-303.37 -191.016)" fill="#ffd0bc"/>
    <path id="Path_231" data-name="Path 231" d="M396.079,310.776c1.97-1.431,4.9-.336,6.441,1.549s2.165,4.332,3.151,6.56a42.7,42.7,0,0,0,5.422,8.363c5.668,7.442,11.248,15.074,14.944,23.668.244.568.546,1.2,1.135,1.389a2.17,2.17,0,0,0,1.252-.116q2.84-.857,5.68-1.711c.494-.149,1.053-.357,1.223-.844a1.648,1.648,0,0,0-.121-1.077q-8-22.939-17.672-45.252" transform="translate(-298.087 -181.395)" fill="#03725d"/>
    <path id="Path_232" data-name="Path 232" d="M368.732,261.417c-2.351,5.606-3.854,17.239-1.095,22.656a6.354,6.354,0,0,1-1.363-.461l-15.294-6.5a1.266,1.266,0,0,1-.961-1.646q.382-3.56.767-7.12" transform="translate(-331.837 -212.068)" fill="#f4c7b8"/>
    <path id="Path_233" data-name="Path 233" d="M382.4,315.016a228.115,228.115,0,0,1,40.055-15.136c6.7-1.834,13.576-3.371,20.515-3.092a11.508,11.508,0,0,1,4.072.734,12.716,12.716,0,0,1,4.177,3.366c13.5,14.714,22.833,32.757,35.426,48.255a11.848,11.848,0,0,1-3.413,4.535,5.126,5.126,0,0,1-5.389.6,9.386,9.386,0,0,1-2.711-3.03c-3.75-5.335-9.5-8.861-14.227-13.351-6.25-5.933-10.731-13.567-17.2-19.263a9.857,9.857,0,0,0-4.194-2.481c-3.449-.767-6.66,1.751-9.451,3.917-8.93,6.929-19.29,11.729-28.92,17.648-6.8,4.178-13.351,8.977-20.9,11.552s-18.561,6.212-24.8,1.232" transform="translate(-327.847 -186.192)" fill="#02806b"/>
    <g id="Group_42" data-name="Group 42" transform="translate(128.014 159.197)">
      <path id="Path_234" data-name="Path 234" d="M413.41,332.472q1.128,5.94,2.254,11.88c.314,1.653.712,3.451,2.027,4.5,1.568,1.251,3.818.968,5.793.624l10.348-1.81c7.734-1.353,15.611-2.753,22.57-6.394,1.226-.641,2.6-1.706,2.358-3.07-.2-1.121-1.4-1.744-2.493-2.063-4.147-1.209-8.592-.5-12.888-.961-6.316-.679-12.057-3.854-18.142-5.675a4.094,4.094,0,0,0-1.97-.237,5.5,5.5,0,0,0-2.039,1.214,10.439,10.439,0,0,1-7.818,1.994" transform="translate(-413.41 -321.618)" fill="#03382e"/>
      <g id="Group_37" data-name="Group 37" transform="translate(9.383)">
        <path id="Path_235" data-name="Path 235" d="M420.956,332.975c-1.117-1.531-2.195-4.627-.719-6.323q3.243-.551,2.517,1.729a8,8,0,0,1-2.209,4.28.448.448,0,0,0,.312.755,17.784,17.784,0,0,0,8.855-2.319c.5-.277.05-1.041-.447-.762a16.848,16.848,0,0,1-8.408,2.2c.1.251.21.5.313.754,1.344-1.457,4.828-8.344.532-8.455-4.2-.107-2.962,6.6-1.509,8.589.331.456,1.1.014.762-.445Z" transform="translate(-418.827 -324.83)" fill="#fe9370"/>
      </g>
      <g id="Group_38" data-name="Group 38" transform="translate(5.453 7.858)">
        <path id="Path_236" data-name="Path 236" d="M421.987,329.371c-1.614.216-3.4.464-4.552,1.743a2.831,2.831,0,0,0-.433,3.532,2.132,2.132,0,0,0,2.974.639c1.732-1.1,1.415-3.582,2.846-4.906l-.695-.088a70.143,70.143,0,0,0,3.239,6.64c.275.5,1.039.054.762-.445a69.934,69.934,0,0,1-3.238-6.641.448.448,0,0,0-.695-.09c-1.062.984-1.178,2.25-1.772,3.5-.573,1.207-.5,1.206-1.8.274q-1.933-.533-.563-1.791c.206-.178.414-.357.62-.533a7.769,7.769,0,0,1,3.307-.949c.554-.073.563-.958,0-.883Z" transform="translate(-416.558 -329.366)" fill="#fe9370"/>
      </g>
      <g id="Group_39" data-name="Group 39" transform="translate(16.82 10.406)">
        <path id="Path_237" data-name="Path 237" d="M424.655,331.136q-.754,2.024-1.505,4.046c-.2.534.655.764.852.236l1.505-4.047c.2-.534-.655-.764-.852-.236Z" transform="translate(-423.12 -330.837)" fill="#fe9370"/>
      </g>
      <g id="Group_40" data-name="Group 40" transform="translate(22.418 11.97)">
        <path id="Path_238" data-name="Path 238" d="M426.808,332.163l-.454,4.272c-.061.565.825.561.883,0l.454-4.272c.061-.565-.825-.561-.883,0Z" transform="translate(-426.351 -331.74)" fill="#fe9370"/>
      </g>
      <g id="Group_41" data-name="Group 41" transform="translate(28.099 13.275)">
        <path id="Path_239" data-name="Path 239" d="M429.631,332.92a11.2,11.2,0,0,0,.468,2.978.442.442,0,0,0,.852-.234,10.313,10.313,0,0,1-.437-2.744.442.442,0,0,0-.883,0Z" transform="translate(-429.631 -332.494)" fill="#fe9370"/>
      </g>
      <path id="Path_240" data-name="Path 240" d="M422.137,345.6q5.173-.907,10.349-1.81c7.735-1.355,15.611-2.754,22.568-6.394,1.181-.618,2.479-1.628,2.365-2.917-2.671.142-5.1,1.582-7.613,2.531a42.382,42.382,0,0,1-7.043,1.77q-3.885.74-7.767,1.483a42.144,42.144,0,0,1-8.05,1,30.429,30.429,0,0,0-7.428.551c-1.471.327-6.842.65-2.718,3.452C418.329,346.158,420.342,345.911,422.137,345.6Z" transform="translate(-412.048 -317.767)" fill="#022b23"/>
    </g>
    <path id="Path_241" data-name="Path 241" d="M360.632,241.694c.1.511.785.6,1.306.6a18.087,18.087,0,0,1,12.36,4.4,13.839,13.839,0,0,1,4.53,12.07c-.269,1.711-.9,3.432-.565,5.129.388,1.942,1.964,3.407,3.558,4.584a1.99,1.99,0,0,1,.733.771c.4.979-.828,1.755-1.647,2.423-2.817,2.294-1.673,6.939-3.423,10.123a2.537,2.537,0,0,1-1.233,1.228,3.208,3.208,0,0,1-1.545.05q-3.692-.489-7.386-.975a27.2,27.2,0,0,1-7.371-1.685,15.447,15.447,0,0,1-7.856-8.263,20.684,20.684,0,0,1-1.077-11.478" transform="translate(-331.345 -226.51)" fill="#ffd0bc"/>
    <path id="Path_242" data-name="Path 242" d="M356.522,267.207a27.348,27.348,0,0,0,12.521,6.615,11.926,11.926,0,0,1,4.1,1.346,9.768,9.768,0,0,1,2.332,2.524q2.973,4.092,5.942,8.185c3.518,4.847,7.14,9.934,8.083,15.85.686,4.306-.114,8.7-.116,13.058a35.813,35.813,0,0,0,4.3,17A9.448,9.448,0,0,1,395,334.976a7.869,7.869,0,0,1-.275,2.734A77.093,77.093,0,0,1,381.276,366.8c-3.348,4.469-8.008,8.926-13.581,8.543-5.1-.352-8.968-4.642-11.838-8.871-13.636-20.087-17.709-45.78-13.848-69.749,1.658-10.29,4.843-20.635,11.424-28.717" transform="translate(-338.695 -207.828)" fill="#fe9370"/>
    <path id="Path_243" data-name="Path 243" d="M385.34,291.979a7.733,7.733,0,0,1,3.769-1.557c1.032-.13,2.342.149,2.605,1.155a3.575,3.575,0,0,1,0,1.121c-.1,1.569.629,3.054,1.086,4.558s.577,3.329-.511,4.464c-1,1.05-2.633,1.107-4.085,1.093" transform="translate(-305.951 -190.851)" fill="#fb8860"/>
    <g id="Group_43" data-name="Group 43" transform="translate(81.023 101.158)">
      <path id="Path_244" data-name="Path 244" d="M386.83,292.6a11.689,11.689,0,0,1,2.531-.393c.566-.026.57-.909,0-.883a12.65,12.65,0,0,0-2.765.424.442.442,0,0,0,.234.852Z" transform="translate(-386.283 -291.326)" fill="#ff7131"/>
    </g>
    <g id="Group_44" data-name="Group 44" transform="translate(81.339 104.045)">
      <path id="Path_245" data-name="Path 245" d="M386.891,293.978a14.772,14.772,0,0,0,2.914-.128c.561-.078.322-.93-.236-.852a13.56,13.56,0,0,1-2.678.1c-.568-.035-.565.849,0,.883Z" transform="translate(-386.466 -292.992)" fill="#ff7131"/>
    </g>
    <g id="Group_45" data-name="Group 45" transform="translate(82.249 106.945)">
      <path id="Path_246" data-name="Path 246" d="M387.3,295.536a8.9,8.9,0,0,0,2.619.3c.566-.019.57-.9,0-.883a8.033,8.033,0,0,1-2.385-.27.442.442,0,0,0-.234.852Z" transform="translate(-386.991 -294.666)" fill="#ff7131"/>
    </g>
    <g id="Group_46" data-name="Group 46" transform="translate(82.27 109.682)">
      <path id="Path_247" data-name="Path 247" d="M387.308,297.123a5.9,5.9,0,0,0,1.992.3.442.442,0,0,0,0-.884,5.21,5.21,0,0,1-1.757-.272c-.54-.178-.773.676-.236.852Z" transform="translate(-387.003 -296.246)" fill="#ff7131"/>
    </g>
    <g id="Group_47" data-name="Group 47" transform="translate(30.612 163.358)">
      <path id="Path_248" data-name="Path 248" d="M357.368,328.082a5.542,5.542,0,0,1,1.549,1.86c.267.5,1.029.057.764-.445a6.514,6.514,0,0,0-1.867-2.177c-.45-.345-.892.421-.445.762Z" transform="translate(-357.182 -327.233)" fill="#ff7131"/>
    </g>
    <g id="Group_48" data-name="Group 48" transform="translate(34.886 159.833)">
      <path id="Path_249" data-name="Path 249" d="M359.793,325.936a6.648,6.648,0,0,1,1.563,1.982c.262.506,1.026.059.762-.445a7.26,7.26,0,0,0-1.7-2.162c-.428-.371-1.055.251-.625.625Z" transform="translate(-359.649 -325.197)" fill="#ff7131"/>
    </g>
    <g id="Group_49" data-name="Group 49" transform="translate(37.729 156.399)">
      <path id="Path_250" data-name="Path 250" d="M361.595,324.093a3.586,3.586,0,0,1,1.651,1.168c.362.44.984-.189.625-.625a4.431,4.431,0,0,0-2.042-1.394c-.539-.185-.771.667-.234.852Z" transform="translate(-361.29 -323.215)" fill="#ff7131"/>
    </g>
    <g id="Group_50" data-name="Group 50" transform="translate(40.188 152.805)">
      <path id="Path_251" data-name="Path 251" d="M363.02,322.013a3.367,3.367,0,0,1,1.9,1.389c.313.469,1.081.028.762-.447a4.314,4.314,0,0,0-2.43-1.795.442.442,0,0,0-.236.852Z" transform="translate(-362.71 -321.14)" fill="#ff7131"/>
    </g>
    <g id="Group_51" data-name="Group 51" transform="translate(43.261 148.369)">
      <path id="Path_252" data-name="Path 252" d="M364.685,319.419q1.021.683,2.042,1.363c.475.317.918-.447.447-.762l-2.042-1.365c-.475-.317-.918.449-.447.764Z" transform="translate(-364.484 -318.579)" fill="#ff7131"/>
    </g>
    <g id="Group_52" data-name="Group 52" transform="translate(45.823 144.198)">
      <path id="Path_253" data-name="Path 253" d="M366.07,316.947a4.453,4.453,0,0,0,1.474,1.174c.508.255.954-.508.447-.762a3.869,3.869,0,0,1-1.3-1.038c-.36-.44-.984.189-.625.625Z" transform="translate(-365.963 -316.172)" fill="#ff7131"/>
    </g>
    <g id="Group_53" data-name="Group 53" transform="translate(47.36 141.001)">
      <path id="Path_254" data-name="Path 254" d="M366.959,315.1a5.612,5.612,0,0,0,2.049,1.559c.514.232.965-.53.447-.762a5.082,5.082,0,0,1-1.871-1.422c-.364-.438-.986.189-.625.625Z" transform="translate(-366.85 -314.326)" fill="#ff7131"/>
    </g>
    <g id="Group_54" data-name="Group 54" transform="translate(49.364 137.25)">
      <path id="Path_255" data-name="Path 255" d="M368.225,312.984a5.5,5.5,0,0,1,1.1.793c.416.386,1.043-.237.624-.625a6.513,6.513,0,0,0-1.278-.932c-.5-.275-.944.487-.445.764Z" transform="translate(-368.007 -312.161)" fill="#ff7131"/>
    </g>
    <g id="Group_55" data-name="Group 55" transform="translate(51.185 132.504)">
      <path id="Path_256" data-name="Path 256" d="M369.207,310.154a4.858,4.858,0,0,0,1.393.811c.53.2.76-.65.234-.852a3.418,3.418,0,0,1-1-.584c-.435-.359-1.064.263-.625.625Z" transform="translate(-369.058 -309.421)" fill="#ff7131"/>
    </g>
    <g id="Group_56" data-name="Group 56" transform="translate(53.382 126.739)">
      <path id="Path_257" data-name="Path 257" d="M370.433,306.869a4.892,4.892,0,0,0,1.341,1.147.443.443,0,0,0,.447-.764,4.222,4.222,0,0,1-1.164-1.008c-.359-.442-.98.187-.624.625Z" transform="translate(-370.326 -306.093)" fill="#ff7131"/>
    </g>
    <path id="Path_258" data-name="Path 258" d="M359.218,342.865c-6.1-2.7-9.462-9.285-11.464-15.647a73.27,73.27,0,0,1-1.426-38.551l2.053,10.681a136.882,136.882,0,0,0,3.809,16.231c2.347,7.284,5.909,14.154,7.9,21.544.5,1.859.875,3.939-.054,5.625" transform="translate(-335.923 -192.115)" fill="#fb8860"/>
    <path id="Path_259" data-name="Path 259" d="M350.3,283.395c-1.367,12.9,1.155,26.517,8.765,37.018a23.118,23.118,0,0,0,5.909,5.952A15.705,15.705,0,0,0,389.23,314" transform="translate(-331.87 -195.975)" fill="#fb8860"/>
    <path id="Path_260" data-name="Path 260" d="M348.564,268.4c-.144-1.427,1.528-2.477,2.953-2.314a8.77,8.77,0,0,1,3.8,1.925,28.848,28.848,0,0,0,10.8,4.6,3.238,3.238,0,0,1,1.334.464,3.038,3.038,0,0,1,.689.821l1.336,2.028a2.013,2.013,0,0,1,.478,1.663c-.263.767-1.277.906-2.087.875a29.713,29.713,0,0,1-17.951-6.953c-.967-.819-1.968-2.009-1.559-3.208" transform="translate(-333.107 -208.664)" fill="#fb8860"/>
    <path id="Path_261" data-name="Path 261" d="M351.1,266.7q-.281,1.575-.563,3.148" transform="translate(-331.437 -208.202)" fill="none" stroke="#000" stroke-miterlimit="10" stroke-width="0.5"/>
    <path id="Path_262" data-name="Path 262" d="M352.708,267.567V272.8" transform="translate(-329.846 -207.565)" fill="none" stroke="#000" stroke-miterlimit="10" stroke-width="0.5"/>
    <g id="Group_57" data-name="Group 57" transform="translate(26.965 62.788)">
      <path id="Path_263" data-name="Path 263" d="M355.083,269.729l.594,3.889c.085.561.937.322.852-.234l-.594-3.889c-.085-.561-.937-.322-.852.234Z" transform="translate(-355.077 -269.175)" fill="#ff7131"/>
    </g>
    <g id="Group_58" data-name="Group 58" transform="translate(31.571 64.076)">
      <path id="Path_264" data-name="Path 264" d="M357.74,270.338a15.012,15.012,0,0,0,1.221,4.267c.236.516,1,.068.764-.447a13.416,13.416,0,0,1-1.1-3.82c-.074-.556-.96-.563-.885,0Z" transform="translate(-357.735 -269.919)" fill="#ff7131"/>
    </g>
    <path id="Path_265" data-name="Path 265" d="M353.751,275.785a5.067,5.067,0,0,1,5.024-.852,12.122,12.122,0,0,1,4.4,2.969c4.3,4.111,7.677,9.072,11.629,13.517s8.722,8.5,14.494,9.926c7.253,1.793,15.19-.766,22.235,1.724a3.327,3.327,0,0,1,1.569.956,5.8,5.8,0,0,1,.695,2.534c.293,1.448,1.206,2.737,1.349,4.208.3,3.075-2.687,5.361-5.37,6.889a66.829,66.829,0,0,1-16.872,7.211,33,33,0,0,1-18.163-.263c-6.1-2.016-11.293-6.248-15.353-11.23-7.908-9.706-11.81-23.28-7.736-35.116" transform="translate(-331.817 -202.392)" fill="#fe9370"/>
    <path id="Path_266" data-name="Path 266" d="M359.68,289.995l4.842,6.162a25.634,25.634,0,0,0,4.286,4.615,13.21,13.21,0,0,0,17-1.259c.546-.568,1.018-1.552.409-2.053a1.451,1.451,0,0,0-.741-.253c-4.052-.565-8.221.443-12.245-.3-4.611-.849-9.882-3.986-13.545-6.915" transform="translate(-324.74 -191.142)" fill="#fb8860"/>
    <path id="Path_267" data-name="Path 267" d="M352.584,255.209a17.951,17.951,0,0,1-6.99-3.08,8.925,8.925,0,0,1-1.53-13.428,17.792,17.792,0,0,1,6.013-4.5,8.7,8.7,0,0,1,5.569-1.154,7.208,7.208,0,0,1,3.735,2.429,12.621,12.621,0,0,1,2.663,11.414" transform="translate(-337.903 -232.929)" fill="#03382e"/>
    <path id="Path_268" data-name="Path 268" d="M362.223,237.848a11.063,11.063,0,0,1-6.248,1.147c-1.536-.269-3.038-1.067-4.573-.79-1.387.249-2.475,1.332-3.8,1.826a4.913,4.913,0,0,1-5.4-1.637,8.554,8.554,0,0,0-.459,3.7,9.711,9.711,0,0,0,3.847,6.43,17.94,17.94,0,0,0,6.99,3.08l3.513-3.089.017-.024a9,9,0,0,1,1.142-1.561,5.119,5.119,0,0,1,1.828-1.041l2.96-2.605A12.345,12.345,0,0,0,362.223,237.848Z" transform="translate(-337.901 -229.327)" fill="#022b23"/>
    <path id="Path_269" data-name="Path 269" d="M365.129,240.873c5.322-1.015,8.724-.094,12.808,1.6,3.56,1.478,7.535,3.558,8.306,7.334.707,3.461-1.67,6.787-4.267,9.183s-5.663,4.539-7.054,7.787a5.278,5.278,0,0,1-.935,1.737,1.325,1.325,0,0,1-1.779.2,3.1,3.1,0,0,1-.537-1.32c-.632-1.845-3.529-2.054-4.792-.568s-.987,3.849.173,5.415c.52.7,1.183,1.282,1.682,1.994,1.692,2.413,1.154,5.748,0,8.459s-2.863,5.237-3.4,8.135c-.291,1.573-.222,3.194-.482,4.774a1.874,1.874,0,0,1-.889,1.531c-.618.258-1.294-.146-1.876-.478-3.551-2.028-7.9-1.741-11.982-1.973s-8.672-1.424-10.577-5.043c2.093-.223,3.622-2.236,4.031-4.3a17.052,17.052,0,0,0-.409-6.259c-.52-2.926-.856-6.061.381-8.762.994-2.172,2.922-3.847,3.74-6.094.871-2.4.355-5.1,1.058-7.556.922-3.215,3.747-5.47,5.526-8.3a18.848,18.848,0,0,1,1.879-2.869,11.293,11.293,0,0,1,2.669-1.954c2.134-1.261,4.376-2.557,6.851-2.7" transform="translate(-339.497 -227.421)" fill="#03382e"/>
    <path id="Path_270" data-name="Path 270" d="M364.215,290.49c-1.925-.807-4.189.785-6.167.12-2.851-.961-2.418-5.117-3.794-7.8a27.862,27.862,0,0,0-2.519-3.307c-2.657-3.693-2.139-8.935,0-12.952a34.46,34.46,0,0,0,2.637-5.015c1.964-5.838-2.12-13.654,1.791-18.41l-.646.66a24.463,24.463,0,0,0-1.68,2.617c-1.779,2.832-4.6,5.088-5.526,8.3-.7,2.453-.185,5.159-1.058,7.556-.818,2.247-2.744,3.922-3.738,6.094-1.237,2.7-.9,5.836-.383,8.762a17.053,17.053,0,0,1,.409,6.259c-.409,2.065-1.938,4.078-4.029,4.3,1.905,3.619,6.494,4.81,10.577,5.043s8.431-.055,11.982,1.973c.582.333,1.258.736,1.876.478a1.872,1.872,0,0,0,.887-1.531c.139-.847.185-1.7.243-2.562A2.693,2.693,0,0,0,364.215,290.49Z" transform="translate(-339.51 -225.459)" fill="#022b23"/>
    <path id="Path_271" data-name="Path 271" d="M383.231,304.34c-6.39,15.32-13.162,34.69-28.737,43.014a.369.369,0,0,0-.163.2,6.112,6.112,0,0,0,.951.357c15.594-8.566,22.356-27.881,28.8-43.339C384.307,304.05,383.448,303.82,383.231,304.34Z" transform="translate(-328.657 -180.852)" fill="#ff7131"/>
    <g id="Group_64" data-name="Group 64" transform="translate(147.081 154.082)">
      <path id="Path_272" data-name="Path 272" d="M424.417,329.519q1.125,5.937,2.252,11.878c.314,1.653.712,3.451,2.027,4.5,1.568,1.249,3.818.968,5.793.624l10.349-1.812c7.735-1.353,15.611-2.753,22.57-6.392,1.226-.643,2.6-1.706,2.357-3.071-.2-1.121-1.4-1.743-2.493-2.061-4.147-1.211-8.592-.5-12.888-.961-6.314-.681-12.056-3.854-18.142-5.677a4.073,4.073,0,0,0-1.97-.236,5.482,5.482,0,0,0-2.039,1.214,10.452,10.452,0,0,1-7.816,1.994" transform="translate(-424.417 -318.665)" fill="#03382e"/>
      <g id="Group_59" data-name="Group 59" transform="translate(9.382)">
        <path id="Path_273" data-name="Path 273" d="M431.962,330.02c-1.117-1.53-2.195-4.627-.719-6.323q3.245-.548,2.517,1.73a8,8,0,0,1-2.209,4.28.446.446,0,0,0,.312.754,17.8,17.8,0,0,0,8.855-2.318.442.442,0,0,0-.445-.764,16.836,16.836,0,0,1-8.41,2.2c.1.251.21.5.314.755,1.346-1.457,4.828-8.344.532-8.455-4.2-.109-2.962,6.6-1.509,8.589.331.454,1.1.014.762-.447Z" transform="translate(-429.833 -321.877)" fill="#fe9370"/>
      </g>
      <g id="Group_60" data-name="Group 60" transform="translate(5.452 7.858)">
        <path id="Path_274" data-name="Path 274" d="M432.993,326.418c-1.615.215-3.4.464-4.552,1.741a2.833,2.833,0,0,0-.433,3.534,2.132,2.132,0,0,0,2.974.638c1.732-1.1,1.415-3.581,2.846-4.9l-.695-.09a70.422,70.422,0,0,0,3.239,6.641c.275.5,1.039.052.762-.447a70.136,70.136,0,0,1-3.238-6.64.446.446,0,0,0-.695-.09c-1.062.982-1.178,2.25-1.772,3.5-.573,1.209-.5,1.207-1.8.275q-1.933-.535-.563-1.791l.622-.535a7.754,7.754,0,0,1,3.305-.948c.554-.074.563-.96,0-.883Z" transform="translate(-427.564 -326.413)" fill="#fe9370"/>
      </g>
      <g id="Group_61" data-name="Group 61" transform="translate(16.818 10.405)">
        <path id="Path_275" data-name="Path 275" d="M435.661,328.184q-.753,2.024-1.505,4.047c-.2.534.657.764.852.234q.753-2.022,1.505-4.045c.2-.535-.655-.766-.852-.236Z" transform="translate(-434.126 -327.884)" fill="#fe9370"/>
      </g>
      <g id="Group_62" data-name="Group 62" transform="translate(22.416 11.969)">
        <path id="Path_276" data-name="Path 276" d="M437.814,329.208q-.226,2.136-.454,4.273c-.059.565.825.56.883,0l.454-4.273c.061-.565-.825-.56-.883,0Z" transform="translate(-437.357 -328.787)" fill="#fe9370"/>
      </g>
      <g id="Group_63" data-name="Group 63" transform="translate(28.097 13.273)">
        <path id="Path_277" data-name="Path 277" d="M440.637,329.966a11.214,11.214,0,0,0,.468,2.979.442.442,0,0,0,.852-.236,10.288,10.288,0,0,1-.436-2.744.442.442,0,0,0-.884,0Z" transform="translate(-440.637 -329.54)" fill="#fe9370"/>
      </g>
      <path id="Path_278" data-name="Path 278" d="M433.143,342.643q5.173-.9,10.349-1.81c7.734-1.353,15.611-2.753,22.568-6.394,1.181-.617,2.479-1.627,2.365-2.917-2.671.142-5.1,1.582-7.613,2.531a42.04,42.04,0,0,1-7.043,1.77L446,337.306a42.126,42.126,0,0,1-8.048,1.006,30.439,30.439,0,0,0-7.43.549c-1.471.327-6.842.65-2.718,3.452C429.335,343.2,431.35,342.957,433.143,342.643Z" transform="translate(-423.056 -314.815)" fill="#022b23"/>
    </g>
    <g id="Group_65" data-name="Group 65" transform="translate(83.93 55.588)">
      <path id="Path_279" data-name="Path 279" d="M389.312,325.289l42.433-9.761a1.11,1.11,0,0,0,.8-1.044l3.809-48.425c.109-1.389-2.056-1.382-2.165,0q-.852,10.843-1.706,21.683-.634,8.071-1.27,16.141c-.222,2.81.289,7.3-.781,9.928-.6,1.467,1.533-1.032-.01-.2-1.095.592-2.891.665-4.1.942l-13.86,3.189L388.737,323.2c-1.358.312-.783,2.4.575,2.087Z" transform="translate(-387.961 -265.019)" fill="#022b23"/>
    </g>
  </g>
  <circle id="Ellipse_7" data-name="Ellipse 7" cx="8.07" cy="8.07" r="8.07" transform="translate(617.911 21.904)" fill="#fe9370"/>
  <circle id="Ellipse_8" data-name="Ellipse 8" cx="8.07" cy="8.07" r="8.07" transform="translate(762.291 137.133)" fill="#fe9370"/>
  <path id="Path_280" data-name="Path 280" d="M436.585,158.514a3.632,3.632,0,1,1-3.631-3.633A3.63,3.63,0,0,1,436.585,158.514Z" transform="translate(288.087 -116.501)" fill="#fe9370"/>
  <path id="Path_281" data-name="Path 281" d="M126.561,170.07A8.07,8.07,0,1,1,118.493,162,8.07,8.07,0,0,1,126.561,170.07Z" transform="translate(54.571 -111.287)" fill="#fe9370"/>
  <circle id="Ellipse_9" data-name="Ellipse 9" cx="8.07" cy="8.07" r="8.07" transform="translate(311.578 123.033)" fill="#fe9370"/>
  <circle id="Ellipse_10" data-name="Ellipse 10" cx="3.632" cy="3.632" r="3.632" transform="translate(266.696 24.28)" fill="#fe9370"/>
  <circle id="Ellipse_11" data-name="Ellipse 11" cx="3.632" cy="3.632" r="3.632" transform="translate(64.847 97.665)" fill="#fe9370"/>
  <g id="Group_88" data-name="Group 88" transform="translate(107.624 214.23)">
    <g id="Group_69" data-name="Group 69" transform="translate(12.925)">
      <rect id="Rectangle_28" data-name="Rectangle 28" width="108.844" height="19.499" rx="0.952" fill="#fe9370"/>
      <g id="Group_67" data-name="Group 67" transform="translate(6.206)">
        <path id="Path_282" data-name="Path 282" d="M92.5,256.4H88.348v19.5H92.5" transform="translate(-88.348 -256.396)" fill="#ff7131"/>
      </g>
      <g id="Group_68" data-name="Group 68" transform="translate(98.661)">
        <path id="Path_283" data-name="Path 283" d="M145.872,256.4H141.72v19.5h4.152" transform="translate(-141.72 -256.396)" fill="#ff7131"/>
      </g>
    </g>
    <g id="Group_72" data-name="Group 72" transform="translate(0 78.889)">
      <path id="Path_284" data-name="Path 284" d="M77.3,319.788a1.921,1.921,0,0,0,2.106,1.649H214.334a1.923,1.923,0,0,0,2.108-1.649v-16.2a1.923,1.923,0,0,0-2.108-1.649H79.41a1.921,1.921,0,0,0-2.106,1.649Z" transform="translate(-77.304 -301.937)" fill="#fe9370"/>
      <g id="Group_70" data-name="Group 70" transform="translate(7.933 0)">
        <path id="Path_285" data-name="Path 285" d="M87.191,301.937H81.883v19.5h5.307" transform="translate(-81.883 -301.937)" fill="#ff7131"/>
      </g>
      <g id="Group_71" data-name="Group 71" transform="translate(126.12 0)">
        <path id="Path_286" data-name="Path 286" d="M155.418,301.937h-5.307v19.5h5.307" transform="translate(-150.111 -301.937)" fill="#ff7131"/>
      </g>
    </g>
    <g id="Group_75" data-name="Group 75" transform="translate(4.817 36.827)">
      <path id="Path_287" data-name="Path 287" d="M80.085,295.505a1.872,1.872,0,0,0,2.034,1.649H212.37a1.873,1.873,0,0,0,2.035-1.649V279.3a1.873,1.873,0,0,0-2.035-1.647H82.119a1.872,1.872,0,0,0-2.034,1.647Z" transform="translate(-80.085 -277.655)" fill="#02806b"/>
      <g id="Group_73" data-name="Group 73" transform="translate(7.658)">
        <path id="Path_288" data-name="Path 288" d="M89.629,277.656H84.506v19.5h5.124" transform="translate(-84.506 -277.656)" fill="#fe9370"/>
      </g>
      <g id="Group_74" data-name="Group 74" transform="translate(121.753)">
        <path id="Path_289" data-name="Path 289" d="M155.495,277.656h-5.124v19.5h5.124" transform="translate(-150.371 -277.656)" fill="#fe9370"/>
      </g>
    </g>
    <g id="Group_78" data-name="Group 78" transform="translate(18.08 98.388)">
      <path id="Path_290" data-name="Path 290" d="M87.741,331.043a1.873,1.873,0,0,0,2.035,1.649H220.028a1.873,1.873,0,0,0,2.035-1.649v-16.2a1.873,1.873,0,0,0-2.035-1.647H89.776a1.873,1.873,0,0,0-2.035,1.647Z" transform="translate(-87.741 -313.194)" fill="#02806b"/>
      <g id="Group_76" data-name="Group 76" transform="translate(7.659)">
        <path id="Path_291" data-name="Path 291" d="M97.286,313.194H92.163v19.5h5.124" transform="translate(-92.163 -313.194)" fill="#fe9370"/>
      </g>
      <g id="Group_77" data-name="Group 77" transform="translate(121.755)">
        <path id="Path_292" data-name="Path 292" d="M163.152,313.194h-5.124v19.5h5.124" transform="translate(-158.028 -313.194)" fill="#fe9370"/>
      </g>
    </g>
    <g id="Group_81" data-name="Group 81" transform="translate(20.428 19.498)">
      <rect id="Rectangle_29" data-name="Rectangle 29" width="102.409" height="14.754" transform="translate(1.18 1.797)" fill="#fff0d9"/>
      <g id="Group_79" data-name="Group 79" transform="translate(1.18 4.019)">
        <rect id="Rectangle_30" data-name="Rectangle 30" width="102.409" height="0.315" fill="#dbcebb"/>
        <rect id="Rectangle_31" data-name="Rectangle 31" width="102.409" height="0.315" transform="translate(0 2.499)" fill="#dbcebb"/>
        <rect id="Rectangle_32" data-name="Rectangle 32" width="102.409" height="0.315" transform="translate(0 4.998)" fill="#dbcebb"/>
        <rect id="Rectangle_33" data-name="Rectangle 33" width="102.409" height="0.315" transform="translate(0 7.497)" fill="#dbcebb"/>
        <rect id="Rectangle_34" data-name="Rectangle 34" width="102.409" height="0.315" transform="translate(0 9.995)" fill="#dbcebb"/>
      </g>
      <g id="Group_80" data-name="Group 80">
        <path id="Path_293" data-name="Path 293" d="M89.1,268.866a.759.759,0,0,0,.67.825H193.2a.759.759,0,0,0,.669-.825v-.39a.759.759,0,0,0-.669-.824H89.767a.759.759,0,0,0-.67.824Z" transform="translate(-89.097 -267.652)" fill="#02806b"/>
        <path id="Path_294" data-name="Path 294" d="M89.1,278.281a.759.759,0,0,0,.67.825H193.2a.759.759,0,0,0,.669-.825v-.39a.759.759,0,0,0-.669-.825H89.767a.759.759,0,0,0-.67.825Z" transform="translate(-89.097 -260.758)" fill="#02806b"/>
      </g>
    </g>
    <g id="Group_84" data-name="Group 84" transform="translate(15.074 55.981)">
      <path id="Path_295" data-name="Path 295" d="M88.042,289.79H190.091a9.761,9.761,0,1,1,0,19.522H88.042Z" transform="translate(-84.515 -287.924)" fill="#fff0d9"/>
      <g id="Group_82" data-name="Group 82" transform="translate(3.526 3.972)">
        <rect id="Rectangle_35" data-name="Rectangle 35" width="108.36" height="0.315" fill="#dbcebb"/>
        <rect id="Rectangle_36" data-name="Rectangle 36" width="110.885" height="0.315" transform="translate(0 2.142)" fill="#dbcebb"/>
        <rect id="Rectangle_37" data-name="Rectangle 37" width="110.885" height="0.315" transform="translate(0 4.284)" fill="#dbcebb"/>
        <rect id="Rectangle_38" data-name="Rectangle 38" width="110.885" height="0.315" transform="translate(0 6.425)" fill="#dbcebb"/>
        <rect id="Rectangle_39" data-name="Rectangle 39" width="110.885" height="0.315" transform="translate(0 8.567)" fill="#dbcebb"/>
        <rect id="Rectangle_40" data-name="Rectangle 40" width="110.885" height="0.315" transform="translate(0 10.709)" fill="#dbcebb"/>
        <rect id="Rectangle_41" data-name="Rectangle 41" width="110.885" height="0.315" transform="translate(0 12.851)" fill="#dbcebb"/>
        <rect id="Rectangle_42" data-name="Rectangle 42" width="108.36" height="0.315" transform="translate(0 14.993)" fill="#dbcebb"/>
      </g>
      <g id="Group_83" data-name="Group 83">
        <path id="Path_296" data-name="Path 296" d="M87.265,311.967H191.088a11.627,11.627,0,1,0,0-23.254H87.265a1.259,1.259,0,1,0,0,2.519H191.088a9.108,9.108,0,0,1,0,18.216H87.265a1.259,1.259,0,1,0,0,2.519Z" transform="translate(-86.006 -288.713)" fill="#02806b"/>
      </g>
    </g>
    <g id="Group_87" data-name="Group 87" transform="translate(10.343 117.558)">
      <path id="Path_297" data-name="Path 297" d="M195.877,325.338H93.828a9.76,9.76,0,1,0,0,19.521H195.877Z" transform="translate(-82.695 -323.471)" fill="#fff0d9"/>
      <g id="Group_85" data-name="Group 85" transform="translate(2.298 3.973)">
        <rect id="Rectangle_43" data-name="Rectangle 43" width="108.36" height="0.315" transform="translate(2.524)" fill="#dbcebb"/>
        <rect id="Rectangle_44" data-name="Rectangle 44" width="110.885" height="0.315" transform="translate(0 2.142)" fill="#dbcebb"/>
        <rect id="Rectangle_45" data-name="Rectangle 45" width="110.885" height="0.315" transform="translate(0 4.284)" fill="#dbcebb"/>
        <rect id="Rectangle_46" data-name="Rectangle 46" width="110.885" height="0.315" transform="translate(0 6.425)" fill="#dbcebb"/>
        <rect id="Rectangle_47" data-name="Rectangle 47" width="110.885" height="0.315" transform="translate(0 8.567)" fill="#dbcebb"/>
        <rect id="Rectangle_48" data-name="Rectangle 48" width="110.885" height="0.315" transform="translate(0 10.709)" fill="#dbcebb"/>
        <rect id="Rectangle_49" data-name="Rectangle 49" width="110.885" height="0.315" transform="translate(0 12.851)" fill="#dbcebb"/>
        <rect id="Rectangle_50" data-name="Rectangle 50" width="108.36" height="0.315" transform="translate(2.524 14.993)" fill="#dbcebb"/>
      </g>
      <g id="Group_86" data-name="Group 86">
        <path id="Path_298" data-name="Path 298" d="M198.725,347.516H94.9a11.628,11.628,0,0,1,0-23.255H198.725a1.259,1.259,0,1,1,0,2.519H94.9A9.108,9.108,0,0,0,94.9,345H198.725a1.26,1.26,0,0,1,0,2.52Z" transform="translate(-83.275 -324.26)" fill="#02806b"/>
      </g>
    </g>
  </g>
</svg>
